<svg xmlns="http://www.w3.org/2000/svg" xmlns:svg="http://www.w3.org/2000/svg" xmlns:xlink="http://www.w3.org/1999/xlink" id="svg85114" width="373.676" height="82.546" x="0" y="0" enable-background="new 0 0 801 346" version="1.1" viewBox="0 0 373.676 82.546" xml:space="preserve"><metadata id="metadata126035"/><defs id="defs126033"><radialGradient id="radialGradient131087" cx="695.195" cy="158.002" r="281.207" gradientUnits="userSpaceOnUse" xlink:href="#SVGID_1448_"/><radialGradient id="radialGradient131089" cx="695.655" cy="155.333" r="286.561" gradientUnits="userSpaceOnUse" xlink:href="#SVGID_1449_"/><radialGradient id="radialGradient131091" cx="695.655" cy="156.735" r="281.193" gradientUnits="userSpaceOnUse" xlink:href="#SVGID_1450_"/><radialGradient id="radialGradient131093" cx="695.655" cy="156.85" r="281.198" gradientUnits="userSpaceOnUse" xlink:href="#SVGID_1451_"/><radialGradient id="radialGradient131095" cx="696.112" cy="156.734" r="281.198" gradientUnits="userSpaceOnUse" xlink:href="#SVGID_1452_"/><radialGradient id="radialGradient131097" cx="691.382" cy="169.149" r="281.192" gradientTransform="matrix(1.8801,0,0,1,-452.0804,0)" gradientUnits="userSpaceOnUse" xlink:href="#SVGID_1453_"/><radialGradient id="radialGradient131099" cx="695.64" cy="158.083" r="279.966" gradientUnits="userSpaceOnUse" xlink:href="#SVGID_1454_"/><radialGradient id="radialGradient131101" cx="695.655" cy="156.734" r="281.198" gradientUnits="userSpaceOnUse" xlink:href="#SVGID_1455_"/><radialGradient id="radialGradient131103" cx="691.016" cy="169.149" r="281.196" gradientTransform="matrix(1.8801,0,0,1,-386.8206,0)" gradientUnits="userSpaceOnUse" xlink:href="#SVGID_1456_"/><radialGradient id="radialGradient131105" cx="695.656" cy="155.736" r="281.198" gradientTransform="matrix(1,0,0,0.9873,0,2.7403)" gradientUnits="userSpaceOnUse" xlink:href="#SVGID_1457_"/><radialGradient id="radialGradient131107" cx="695.655" cy="155.66" r="281.746" gradientUnits="userSpaceOnUse" xlink:href="#SVGID_1458_"/><radialGradient id="radialGradient131109" cx="732.739" cy="159.281" r="161.156" gradientUnits="userSpaceOnUse" xlink:href="#SVGID_1459_"/></defs><g id="Texte_3_" display="inline" transform="translate(-376.607,-143.488)" style="display:inline"><g id="Js_x5F_of_x5F_ocaml"><g id="g109005"><radialGradient id="SVGID_1448_" cx="695.195" cy="158.002" r="281.207" gradientUnits="userSpaceOnUse"><stop style="stop-color:#90288d" id="stop109008" offset="0"/><stop style="stop-color:#5a2f8d" id="stop109010" offset="1"/></radialGradient><path id="path109012" d="m 750.283,212.977 v -4.793 c -6.225,-0.068 -13.615,-2.513 -13.615,-13.733 v -31.11 h -5.391 v 30.979 c 0,11.643 7.104,18.61 19.006,18.657 z" style="fill:url(#radialGradient131087)"/></g><g id="g109014"><radialGradient id="SVGID_1449_" cx="695.655" cy="155.333" r="286.561" gradientUnits="userSpaceOnUse"><stop style="stop-color:#90288d" id="stop109017" offset="0"/><stop style="stop-color:#5a2f8d" id="stop109019" offset="1"/></radialGradient><path id="path109021" d="m 662.617,192.619 c 0.301,-7.417 6.295,-13.336 13.787,-13.336 7.344,0 13.486,5.919 13.787,13.336 v 18.916 h 5.02 v -18.916 c 0.301,-7.417 6.295,-13.336 13.787,-13.336 7.566,0 13.787,6.219 13.787,13.862 l -0.043,18.391 h 5.063 v -18.391 c 0,-10.64 -8.766,-18.882 -18.881,-18.882 -7.119,0 -13.113,3.747 -16.336,9.365 -3.297,-5.618 -9.514,-9.365 -16.258,-9.365 -5.545,0 -10.34,2.248 -13.713,5.845 v -4.391 h -5.02 v 35.819 h 5.02 v -18.917 z" style="fill:url(#radialGradient131089)"/></g><g id="g109023"><radialGradient id="SVGID_1450_" cx="695.655" cy="156.735" r="281.193" gradientUnits="userSpaceOnUse"><stop style="stop-color:#90288d" id="stop109026" offset="0"/><stop style="stop-color:#5a2f8d" id="stop109028" offset="1"/></radialGradient><path id="path109030" d="m 647.85,175.715 v 5.281 c -3.615,-4.147 -8.924,-6.733 -14.66,-6.733 -10.951,0 -19.279,8.56 -19.279,19.435 0,10.719 8.482,19.278 19.279,19.278 5.908,0 11.121,-2.541 14.66,-6.57 v 5.129 h 5.021 v -17.987 -12.512 -5.32 h -5.021 z m -14.584,32.094 c -7.789,0 -14.189,-6.399 -14.189,-14.188 0,-7.866 6.4,-14.19 14.189,-14.19 7.867,0 14.189,6.324 14.189,14.19 0,7.788 -6.322,14.188 -14.189,14.188 z" style="fill:url(#radialGradient131091)"/></g><radialGradient id="SVGID_1451_" cx="695.655" cy="156.85" r="281.198" gradientUnits="userSpaceOnUse"><stop style="stop-color:#90288d" id="stop109033" offset="0"/><stop style="stop-color:#5a2f8d" id="stop109035" offset="1"/></radialGradient><path id="path109037" d="m 591.277,203.587 c -5.553,-5.553 -5.553,-14.574 0,-20.05 5.553,-5.553 14.498,-5.553 20.051,0 l 0.076,0.078 3.625,-3.702 c -7.326,-7.326 -19.742,-7.712 -27.453,0 -7.559,7.634 -7.559,19.665 0.076,27.376 4.541,4.541 10.635,6.332 16.436,5.465 v -5.277 c -4.502,0.894 -9.371,-0.401 -12.811,-3.89 z" style="fill:url(#radialGradient131093)"/><radialGradient id="SVGID_1452_" cx="696.112" cy="156.734" r="281.198" gradientUnits="userSpaceOnUse"><stop style="stop-color:#90288d" id="stop109040" offset="0"/><stop style="stop-color:#5a2f8d" id="stop109042" offset="1"/></radialGradient><path id="path109044" d="m 558.611,174.263 c -10.951,0 -19.279,8.56 -19.279,19.435 0,10.719 8.482,19.279 19.279,19.279 10.873,0 19.434,-8.56 19.434,-19.279 0,-10.952 -9.024,-19.435 -19.434,-19.435 z m 0.077,33.546 c -7.789,0 -14.189,-6.4 -14.189,-14.189 0,-7.866 6.4,-14.19 14.189,-14.19 7.867,0 14.189,6.324 14.189,14.19 0,7.789 -6.322,14.189 -14.189,14.189 z" style="fill:url(#radialGradient131095)"/><radialGradient id="SVGID_1453_" cx="691.382" cy="169.149" r="281.192" gradientTransform="matrix(1.8801,0,0,1,-452.0804,0)" gradientUnits="userSpaceOnUse"><stop style="stop-color:#90288d" id="stop109047" offset="0"/><stop style="stop-color:#5a2f8d" id="stop109049" offset="1"/></radialGradient><rect id="rect109051" width="21.09" height="5.348" x="518.242" y="206.188" style="fill:url(#radialGradient131097)"/><g id="g109053"><radialGradient id="SVGID_1454_" cx="695.64" cy="158.083" r="279.966" gradientUnits="userSpaceOnUse"><stop style="stop-color:#90288d" id="stop109056" offset="0"/><stop style="stop-color:#5a2f8d" id="stop109058" offset="1"/></radialGradient><path id="path109060" d="m 518.242,179.068 v -4.806 c -3.291,0.025 -5.076,0.239 -7.805,1.877 -2.73,1.843 -4.008,4.356 -4.008,7.901 v 27.495 h 5.389 v -20.163 h 6.424 v -4.792 h -6.424 v -2.539 c 0,-2.156 1.123,-4.75 6.424,-4.973 z" style="fill:url(#radialGradient131099)"/></g><radialGradient id="SVGID_1455_" cx="695.655" cy="156.734" r="281.198" gradientUnits="userSpaceOnUse"><stop style="stop-color:#90288d" id="stop109063" offset="0"/><stop style="stop-color:#5a2f8d" id="stop109065" offset="1"/></radialGradient><path id="path109067" d="m 483.154,174.262 c -10.951,0 -19.279,8.56 -19.279,19.435 0,10.719 8.482,19.277 19.279,19.277 10.873,0 19.434,-8.559 19.434,-19.277 0,-10.951 -9.024,-19.435 -19.434,-19.435 z m 0.076,33.545 c -7.789,0 -14.189,-6.398 -14.189,-14.188 0,-7.866 6.4,-14.19 14.189,-14.19 7.867,0 14.189,6.324 14.189,14.19 0.001,7.789 -6.321,14.188 -14.189,14.188 z" style="fill:url(#radialGradient131101)"/><radialGradient id="SVGID_1456_" cx="691.016" cy="169.149" r="281.196" gradientTransform="matrix(1.8801,0,0,1,-386.8206,0)" gradientUnits="userSpaceOnUse"><stop style="stop-color:#90288d" id="stop109070" offset="0"/><stop style="stop-color:#5a2f8d" id="stop109072" offset="1"/></radialGradient><rect id="rect109074" width="21.088" height="5.348" x="442.787" y="206.188" style="fill:url(#radialGradient131103)"/><g id="g109076"><radialGradient id="SVGID_1457_" cx="695.656" cy="155.736" r="281.198" gradientTransform="matrix(1,0,0,0.9873,0,2.7403)" gradientUnits="userSpaceOnUse"><stop style="stop-color:#90288d" id="stop109079" offset="0"/><stop style="stop-color:#5a2f8d" id="stop109081" offset="1"/></radialGradient><path id="path109083" d="m 443.526,175.461 c -7.233,3.497 -10.9,9.009 -10.9,16.385 v 3.851 c 0,1.589 -0.243,3.004 -0.72,4.196 -2.207,5.189 -6.109,7.813 -11.903,8.022 v 5.072 h 0.553 c 2.726,0 5.357,-0.668 7.838,-1.994 6.204,-3.592 9.351,-8.844 9.351,-15.616 v -3.853 c 0,-3.274 1.155,-6.111 3.415,-8.409 2.076,-1.895 3.968,-3.042 5.577,-3.403 1.306,-0.167 2.135,-0.299 2.662,-0.426 v -5.035 c -1.828,0.04 -3.786,0.433 -5.873,1.21 z" style="fill:url(#radialGradient131105)"/></g><g id="g109085"><radialGradient id="SVGID_1458_" cx="695.655" cy="155.66" r="281.746" gradientUnits="userSpaceOnUse"><stop style="stop-color:#90288d" id="stop109088" offset="0"/><stop style="stop-color:#5a2f8d" id="stop109090" offset="1"/></radialGradient><path id="path109092" d="m 411.25,184.532 v 6.43 15.797 0.5 c 0,11.043 -7.293,13.428 -13.411,13.482 -0.07,0 -0.135,-0.006 -0.204,-0.008 v 5.297 c 0.045,0 0.088,0.004 0.133,0.004 12.13,0 19.372,-7.068 19.372,-18.906 v -22.597 h -5.89 z" style="fill:url(#radialGradient131107)"/><radialGradient id="SVGID_1459_" cx="732.739" cy="159.281" r="161.156" gradientUnits="userSpaceOnUse"><stop style="stop-color:#90288d" id="stop109095" offset="0"/><stop style="stop-color:#5a2f8d" id="stop109097" offset="1"/></radialGradient><path id="path109099" d="m 413.799,172.698 c -2.314,0 -4.396,2.005 -4.396,4.473 0,2.468 2.082,4.396 4.396,4.396 2.468,0 4.473,-1.929 4.473,-4.396 0,-2.467 -2.005,-4.473 -4.473,-4.473 z" style="fill:url(#radialGradient131109)"/></g></g><g id="Fresh_air_in_web_programming_6_"><path id="path109102" d="m 450.908,165.3 h -0.695 l 0.096,-0.515 h 0.695 c 0.131,-0.622 0.373,-1.669 2.027,-1.685 l -0.098,0.531 c -1.16,0 -1.281,0.736 -1.357,1.153 h 1.145 l -0.096,0.515 h -1.145 l -0.73,3.959 h -0.572 l 0.73,-3.958 z" style="fill:#7c8081"/><path id="path109104" d="m 453.25,164.786 h 0.572 l -0.119,0.646 h 0.018 c 0.385,-0.629 0.91,-0.728 1.398,-0.76 l -0.111,0.604 c -0.406,0.033 -0.777,0.181 -1.047,0.442 -0.24,0.245 -0.414,0.564 -0.48,0.924 l -0.484,2.617 h -0.572 l 0.825,-4.473 z" style="fill:#7c8081"/><path id="path109106" d="m 455.594,167.231 c -0.121,0.875 0.561,1.619 1.436,1.619 0.82,-0.017 1.49,-0.499 1.797,-1.055 h 0.605 c -0.475,0.892 -1.459,1.57 -2.49,1.57 -1.25,0 -2.143,-1.015 -1.898,-2.339 0.234,-1.268 1.453,-2.331 2.758,-2.355 0.98,0.008 1.568,0.589 1.785,1.145 0.213,0.482 0.186,0.981 0.082,1.415 h -4.075 z m 3.588,-0.516 c 0.016,-1.055 -0.756,-1.529 -1.467,-1.529 -0.705,0 -1.666,0.475 -2.025,1.529 h 3.492 z" style="fill:#7c8081"/><path id="path109108" d="m 460.645,167.934 c -0.141,0.851 0.428,0.916 0.633,0.916 0.539,0 0.893,-0.318 0.982,-0.802 0.113,-0.613 -0.418,-0.752 -0.727,-0.891 -0.43,-0.156 -1.113,-0.401 -0.957,-1.243 0.117,-0.63 0.68,-1.243 1.506,-1.243 0.67,0 1.131,0.515 0.992,1.219 h -0.572 c 0.061,-0.549 -0.287,-0.704 -0.541,-0.704 -0.457,0 -0.746,0.368 -0.801,0.671 -0.088,0.475 0.355,0.638 0.662,0.744 0.492,0.172 1.191,0.458 1.021,1.383 -0.133,0.769 -0.713,1.382 -1.662,1.382 -0.621,0 -1.32,-0.426 -1.109,-1.432 h 0.573 z" style="fill:#7c8081"/><path id="path109110" d="m 464.426,163.207 h 0.572 l -0.396,2.151 h 0.016 c 0.223,-0.27 0.74,-0.687 1.502,-0.687 0.547,0 0.98,0.139 1.314,0.548 0.273,0.327 0.4,0.842 0.264,1.578 l -0.455,2.462 h -0.572 l 0.455,-2.462 c 0.107,-0.581 0.002,-0.989 -0.199,-1.227 -0.254,-0.303 -0.648,-0.385 -0.902,-0.385 -0.254,0 -0.678,0.082 -1.043,0.385 -0.291,0.237 -0.545,0.646 -0.645,1.227 l -0.455,2.462 h -0.572 l 1.116,-6.052 z" style="fill:#7c8081"/><path id="path109112" d="m 475.129,169.259 h -0.572 l 0.145,-0.785 h -0.016 c -0.627,0.736 -1.441,0.892 -1.908,0.892 -1.406,0 -2.205,-1.071 -1.969,-2.355 0.221,-1.194 1.373,-2.339 2.836,-2.339 0.482,0 1.24,0.155 1.576,0.899 h 0.018 l 0.145,-0.785 h 0.572 l -0.827,4.473 z m -2.256,-0.409 c 0.965,0 1.936,-0.776 2.129,-1.823 0.18,-0.981 -0.422,-1.841 -1.451,-1.841 -0.982,0 -1.965,0.712 -2.174,1.849 -0.186,0.998 0.4,1.815 1.496,1.815 z" style="fill:#7c8081"/><path id="path109114" d="m 476.988,164.786 h 0.572 l -0.826,4.474 h -0.572 l 0.826,-4.474 z m 0.291,-1.579 h 0.574 l -0.191,1.031 h -0.572 l 0.189,-1.031 z" style="fill:#7c8081"/><path id="path109116" d="m 478.623,164.786 h 0.572 l -0.119,0.646 h 0.016 c 0.387,-0.629 0.912,-0.728 1.4,-0.76 l -0.111,0.604 c -0.406,0.033 -0.777,0.181 -1.047,0.442 -0.242,0.245 -0.416,0.564 -0.482,0.924 l -0.482,2.617 h -0.572 l 0.825,-4.473 z" style="fill:#7c8081"/><path id="path109118" d="m 483.346,164.786 h 0.572 l -0.826,4.474 h -0.572 l 0.826,-4.474 z m 0.291,-1.579 h 0.574 l -0.191,1.031 h -0.572 l 0.189,-1.031 z" style="fill:#7c8081"/><path id="path109120" d="m 484.98,164.786 h 0.572 l -0.105,0.572 h 0.016 c 0.223,-0.27 0.74,-0.687 1.502,-0.687 0.547,0 0.98,0.139 1.313,0.548 0.275,0.327 0.402,0.842 0.266,1.578 l -0.455,2.462 h -0.572 l 0.455,-2.462 c 0.107,-0.581 0.002,-0.989 -0.199,-1.227 -0.256,-0.303 -0.648,-0.385 -0.902,-0.385 -0.254,0 -0.678,0.082 -1.045,0.385 -0.289,0.237 -0.545,0.646 -0.643,1.227 l -0.455,2.462 h -0.572 l 0.824,-4.473 z" style="fill:#7c8081"/><path id="path109122" d="m 491.803,164.786 h 0.598 l 0.715,3.746 h 0.016 l 1.615,-3.206 h 0.498 l 0.439,3.206 h 0.016 l 2.115,-3.746 h 0.59 l -2.537,4.474 h -0.646 l -0.398,-2.977 h -0.016 l -1.482,2.977 h -0.646 l -0.877,-4.474 z" style="fill:#7c8081"/><path id="path109124" d="m 498.773,167.231 c -0.121,0.875 0.561,1.619 1.436,1.619 0.82,-0.017 1.49,-0.499 1.797,-1.055 h 0.605 c -0.475,0.892 -1.459,1.57 -2.49,1.57 -1.25,0 -2.143,-1.015 -1.898,-2.339 0.234,-1.268 1.453,-2.331 2.758,-2.355 0.98,0.008 1.568,0.589 1.783,1.145 0.215,0.482 0.188,0.981 0.084,1.415 h -4.075 z m 3.588,-0.516 c 0.016,-1.055 -0.756,-1.529 -1.469,-1.529 -0.703,0 -1.666,0.475 -2.023,1.529 h 3.492 z" style="fill:#7c8081"/><path id="path109126" d="m 504.484,163.207 h 0.572 l -0.438,2.364 h 0.018 c 0.641,-0.728 1.426,-0.899 1.908,-0.899 1.463,0 2.193,1.145 1.973,2.339 -0.238,1.284 -1.434,2.355 -2.84,2.355 -0.467,0 -1.213,-0.164 -1.578,-0.892 h -0.016 l -0.145,0.785 h -0.574 l 1.12,-6.052 z m 1.965,1.979 c -1.031,0 -1.949,0.859 -2.131,1.841 -0.193,1.047 0.488,1.823 1.455,1.823 1.096,0 1.982,-0.817 2.166,-1.815 0.211,-1.137 -0.507,-1.849 -1.49,-1.849 z" style="fill:#7c8081"/><path id="path109128" d="m 511.996,164.786 h 0.572 l -0.145,0.785 h 0.018 c 0.65,-0.736 1.426,-0.899 1.908,-0.899 1.463,0 2.191,1.145 1.973,2.339 -0.238,1.284 -1.434,2.355 -2.84,2.355 -0.467,0 -1.213,-0.164 -1.578,-0.892 h -0.016 l -0.436,2.355 h -0.572 l 1.116,-6.043 z m 2.258,0.4 c -1.031,0 -1.949,0.859 -2.131,1.841 -0.193,1.047 0.488,1.823 1.453,1.823 1.096,0 1.984,-0.817 2.168,-1.815 0.211,-1.137 -0.51,-1.849 -1.49,-1.849 z" style="fill:#7c8081"/><path id="path109130" d="m 517.578,164.786 h 0.572 l -0.119,0.646 h 0.016 c 0.387,-0.629 0.912,-0.728 1.4,-0.76 l -0.113,0.604 c -0.406,0.033 -0.777,0.181 -1.045,0.442 -0.242,0.245 -0.416,0.564 -0.482,0.924 l -0.482,2.617 h -0.574 l 0.827,-4.473 z" style="fill:#7c8081"/><path id="path109132" d="m 522.039,164.671 c 1.326,0 2.141,1.12 1.914,2.347 -0.225,1.219 -1.439,2.348 -2.779,2.348 -1.309,0 -2.129,-1.104 -1.904,-2.314 0.261,-1.416 1.591,-2.381 2.769,-2.381 z m -0.764,4.179 c 0.867,0 1.895,-0.687 2.109,-1.856 0.219,-1.178 -0.662,-1.808 -1.432,-1.808 -0.818,0 -1.891,0.671 -2.109,1.856 -0.191,1.04 0.509,1.808 1.432,1.808 z" style="fill:#7c8081"/><path id="path109134" d="m 528.955,168.556 c -0.088,0.482 -0.199,1.088 -0.711,1.636 -0.709,0.785 -1.746,0.826 -1.926,0.826 -0.639,0 -1.836,-0.246 -1.988,-1.645 h 0.605 c 0.08,0.368 0.381,1.129 1.469,1.129 0.752,0 1.699,-0.434 1.928,-1.669 l 0.072,-0.393 h -0.016 c -0.453,0.639 -1.242,0.925 -1.896,0.925 -1.178,0 -2.17,-0.916 -1.91,-2.323 0.262,-1.423 1.6,-2.371 2.777,-2.371 0.408,0 1.188,0.122 1.557,0.916 h 0.016 l 0.148,-0.802 h 0.572 l -0.697,3.771 z m -2.369,0.294 c 1.188,0 1.973,-1.063 2.113,-1.823 0.18,-0.981 -0.43,-1.841 -1.436,-1.841 -1.014,0 -1.926,0.859 -2.107,1.841 -0.179,0.973 0.416,1.823 1.43,1.823 z" style="fill:#7c8081"/><path id="path109136" d="m 530.729,164.786 h 0.572 l -0.119,0.646 h 0.016 c 0.387,-0.629 0.912,-0.728 1.4,-0.76 l -0.113,0.604 c -0.406,0.033 -0.777,0.181 -1.045,0.442 -0.242,0.245 -0.416,0.564 -0.482,0.924 l -0.482,2.617 H 529.9 l 0.829,-4.473 z" style="fill:#7c8081"/><path id="path109138" d="m 536.746,169.259 h -0.572 l 0.145,-0.785 h -0.016 c -0.627,0.736 -1.441,0.892 -1.906,0.892 -1.408,0 -2.207,-1.071 -1.971,-2.355 0.221,-1.194 1.373,-2.339 2.838,-2.339 0.482,0 1.238,0.155 1.576,0.899 h 0.016 l 0.145,-0.785 h 0.572 l -0.827,4.473 z m -2.256,-0.409 c 0.967,0 1.936,-0.776 2.129,-1.823 0.182,-0.981 -0.42,-1.841 -1.451,-1.841 -0.982,0 -1.963,0.712 -2.174,1.849 -0.183,0.998 0.401,1.815 1.496,1.815 z" style="fill:#7c8081"/><path id="path109140" d="m 538.615,164.786 h 0.572 l -0.096,0.515 -0.014,-0.016 -0.002,0.016 h 0.016 c 0.336,-0.441 0.918,-0.629 1.336,-0.629 0.375,0 1.137,0.172 1.346,0.858 0.463,-0.687 1.287,-0.858 1.664,-0.858 0.686,0 1.715,0.408 1.434,1.93 l -0.49,2.658 h -0.572 l 0.479,-2.593 c 0.09,-0.49 0.045,-0.728 -0.033,-0.933 -0.129,-0.318 -0.43,-0.548 -0.912,-0.548 -0.482,0 -0.869,0.229 -1.115,0.548 -0.152,0.205 -0.287,0.442 -0.377,0.933 l -0.479,2.593 H 540.8 l 0.479,-2.593 c 0.09,-0.49 0.045,-0.728 -0.033,-0.933 -0.129,-0.318 -0.43,-0.548 -0.912,-0.548 -0.482,0 -0.869,0.229 -1.115,0.548 -0.152,0.205 -0.287,0.442 -0.377,0.933 l -0.479,2.593 h -0.572 l 0.824,-4.474 z" style="fill:#7c8081"/><path id="path109142" d="m 546.279,164.786 h 0.572 l -0.096,0.515 -0.014,-0.016 -0.002,0.016 h 0.016 c 0.336,-0.441 0.918,-0.629 1.336,-0.629 0.375,0 1.137,0.172 1.346,0.858 0.463,-0.687 1.287,-0.858 1.664,-0.858 0.686,0 1.715,0.408 1.434,1.93 l -0.49,2.658 h -0.572 l 0.479,-2.593 c 0.09,-0.49 0.045,-0.728 -0.033,-0.933 -0.129,-0.318 -0.43,-0.548 -0.912,-0.548 -0.482,0 -0.869,0.229 -1.115,0.548 -0.152,0.205 -0.287,0.442 -0.377,0.933 l -0.479,2.593 h -0.572 l 0.479,-2.593 c 0.09,-0.49 0.045,-0.728 -0.033,-0.933 -0.129,-0.318 -0.43,-0.548 -0.912,-0.548 -0.482,0 -0.869,0.229 -1.115,0.548 -0.152,0.205 -0.287,0.442 -0.377,0.933 l -0.479,2.593 h -0.572 l 0.824,-4.474 z" style="fill:#7c8081"/><path id="path109144" d="m 553.936,164.786 h 0.572 l -0.826,4.474 h -0.572 l 0.826,-4.474 z m 0.291,-1.579 h 0.572 l -0.189,1.031 h -0.572 l 0.189,-1.031 z" style="fill:#7c8081"/><path id="path109146" d="m 555.57,164.786 h 0.572 l -0.105,0.572 h 0.016 c 0.223,-0.27 0.74,-0.687 1.502,-0.687 0.547,0 0.98,0.139 1.313,0.548 0.275,0.327 0.402,0.842 0.266,1.578 l -0.455,2.462 h -0.572 l 0.455,-2.462 c 0.107,-0.581 0.002,-0.989 -0.199,-1.227 -0.254,-0.303 -0.648,-0.385 -0.902,-0.385 -0.254,0 -0.678,0.082 -1.045,0.385 -0.289,0.237 -0.543,0.646 -0.643,1.227 l -0.455,2.462 h -0.572 l 0.824,-4.473 z" style="fill:#7c8081"/><path id="path109148" d="m 564.283,168.556 c -0.09,0.482 -0.201,1.088 -0.711,1.636 -0.709,0.785 -1.748,0.826 -1.928,0.826 -0.639,0 -1.836,-0.246 -1.986,-1.645 h 0.605 c 0.078,0.368 0.381,1.129 1.469,1.129 0.752,0 1.699,-0.434 1.926,-1.669 l 0.074,-0.393 h -0.018 c -0.453,0.639 -1.242,0.925 -1.896,0.925 -1.178,0 -2.17,-0.916 -1.91,-2.323 0.264,-1.423 1.6,-2.371 2.777,-2.371 0.41,0 1.188,0.122 1.557,0.916 h 0.018 l 0.146,-0.802 h 0.572 l -0.695,3.771 z m -2.369,0.294 c 1.186,0 1.971,-1.063 2.111,-1.823 0.182,-0.981 -0.428,-1.841 -1.436,-1.841 -1.014,0 -1.924,0.859 -2.105,1.841 -0.179,0.973 0.416,1.823 1.43,1.823 z" style="fill:#7c8081"/></g><g id="Ocsigen"><path id="path109151" d="m 477.613,144.211 c -2.559,0 -4.771,1.037 -6.328,2.697 v -2.456 h -2.316 v 17.151 h 2.316 v -8.922 c 0.139,-3.422 2.904,-6.154 6.361,-6.154 3.492,0 6.363,2.871 6.363,6.396 v 8.68 h 2.316 v -8.68 c 0.001,-4.909 -4.046,-8.712 -8.712,-8.712 z" style="fill:#7c8081"/><path id="path109153" d="m 452.084,146.866 c -3.389,3.41 -3.396,8.812 0.037,12.224 2.018,2.006 4.705,2.826 7.268,2.492 v -2.326 c -1.971,0.34 -4.074,-0.258 -5.609,-1.785 -0.955,-0.949 -1.547,-2.121 -1.77,-3.318 l 14.84,-0.07 c 0.309,-2.617 -0.531,-5.354 -2.492,-7.303 -3.483,-3.461 -8.838,-3.372 -12.274,0.086 z m -0.082,4.939 c 0.217,-1.199 0.799,-2.373 1.75,-3.33 2.486,-2.501 6.496,-2.514 8.996,-0.027 0.957,0.949 1.547,2.121 1.771,3.318 l -12.517,0.039 z" style="fill:#7c8081"/><path id="path109155" d="m 438.721,144.315 c -4.909,0 -8.643,3.837 -8.643,8.712 0,4.807 3.804,8.645 8.643,8.645 2.559,0 4.807,-1.037 6.398,-2.732 v 0.068 c 0,3.525 -2.803,6.326 -6.328,6.326 v 2.316 c 4.84,0 8.643,-3.838 8.643,-8.643 v -6.014 c -0.034,-4.874 -4.079,-8.678 -8.713,-8.678 z m 6.398,8.955 c -0.139,3.389 -2.975,6.086 -6.363,6.086 -3.526,0 -6.362,-2.836 -6.362,-6.361 0,-3.492 2.836,-6.363 6.362,-6.363 3.492,0 6.363,2.871 6.363,6.363 v 0.275 z" style="fill:#7c8081"/><g id="g109157"><path id="path109159" d="m 426.754,143.488 c -1.037,0 -1.971,0.899 -1.971,2.006 0,1.107 0.934,1.971 1.971,1.971 1.107,0 2.006,-0.865 2.006,-1.971 0,-1.106 -0.898,-2.006 -2.006,-2.006 z" style="fill:#652e8d"/><rect id="rect109161" width="2.316" height="12.283" x="425.614" y="149.32" style="fill:#7c8081"/></g><path id="path109163" d="m 414.792,152.924 c 0,2.785 -1.783,5.146 -4.291,5.99 l -0.088,-0.086 v 0.119 c -0.612,0.195 -1.266,0.305 -1.948,0.305 v 2.316 c 0.673,0 1.323,-0.082 1.948,-0.223 3.873,-0.871 6.695,-4.283 6.695,-8.422 0,-3.172 2.313,-5.793 5.379,-6.25 v -2.342 c -4.38,0.466 -7.695,4.107 -7.695,8.593 z" style="fill:#7c8081"/><path id="path109165" d="m 399.981,157.385 c -2.49,-2.49 -2.49,-6.535 0,-8.99 2.488,-2.489 6.5,-2.489 8.988,0 l 0.035,0.035 1.625,-1.66 c -3.285,-3.284 -8.852,-3.458 -12.309,0 -3.389,3.423 -3.389,8.816 0.034,12.275 2.036,2.035 4.769,2.838 7.369,2.449 v -2.367 c -2.017,0.402 -4.201,-0.178 -5.742,-1.742 z" style="fill:#7c8081"/><path id="path109167" d="m 385.251,144.35 c -4.909,0 -8.644,3.837 -8.644,8.712 0,4.807 3.803,8.645 8.644,8.645 4.875,0 8.713,-3.838 8.713,-8.645 0,-4.91 -4.046,-8.712 -8.713,-8.712 z m 0.035,15.041 c -3.492,0 -6.361,-2.871 -6.361,-6.363 0,-3.525 2.869,-6.362 6.361,-6.362 3.527,0 6.362,2.836 6.362,6.362 0,3.492 -2.835,6.363 -6.362,6.363 z" style="fill:#7c8081"/></g></g></svg>