<svg xmlns="http://www.w3.org/2000/svg" width="315.707" height="69.555" x="0" y="0" enable-background="new 0 0 801 346" viewBox="0 0 315.707 69.555"><g id="OcCDuce_1_" transform="translate(-376.608,-143.487)"><g id="Texte_11_"><g id="OcCDuce2__x28_bleu_x29_" display="inline" style="display:inline"><g id="g44223"><path id="path44225" d="m 659.243,180.127 c -7.557,7.569 -7.574,19.563 0.084,27.14 4.5,4.451 10.492,6.272 16.207,5.531 v -5.165 c -4.395,0.756 -9.086,-0.573 -12.51,-3.961 -2.133,-2.109 -3.449,-4.711 -3.949,-7.368 l 33.1,-0.157 c 0.691,-5.81 -1.182,-11.883 -5.559,-16.211 -7.767,-7.685 -19.709,-7.486 -27.373,0.191 z m -0.185,10.965 c 0.484,-2.662 1.783,-5.271 3.904,-7.393 5.545,-5.554 14.488,-5.582 20.066,-0.063 2.133,2.112 3.451,4.713 3.949,7.371 l -27.919,0.085 z" style="fill:#7c8081"/><path id="path44227" d="m 630.884,203.586 c -5.553,-5.553 -5.553,-14.574 0,-20.051 5.553,-5.553 14.498,-5.553 20.051,0 l 0.078,0.078 3.623,-3.703 c -7.326,-7.326 -19.742,-7.711 -27.453,0 -7.559,7.635 -7.559,19.666 0.076,27.377 4.541,4.541 10.635,6.332 16.438,5.464 v -5.277 c -4.505,0.895 -9.374,-0.399 -12.813,-3.888 z" style="fill:#7c8081"/><path id="path44229" d="m 597.396,213.041 c 5.707,0 10.643,-2.314 14.113,-6.016 v 4.491 h 5.166 v -35.82 h -5.166 v 18.451 c -0.309,7.635 -6.479,13.727 -14.191,13.727 -7.787,0 -14.189,-6.4 -14.189,-14.268 v -17.91 h -5.166 v 17.91 c -10e-4,10.95 9.022,19.435 19.433,19.435 z" style="fill:#7c8081"/><g id="g44231"><rect id="rect44233" width="5.371" height="48.195" x="567.737" y="163.32" style="fill:#7c8081"/></g><path id="path44235" d="m 510.79,203.653 c -5.553,-5.553 -5.553,-14.574 0,-20.051 5.553,-5.553 14.498,-5.553 20.051,0 l 0.078,0.078 3.623,-3.703 c -7.326,-7.326 -19.742,-7.711 -27.453,0 -7.559,7.635 -7.559,19.666 0.076,27.377 4.541,4.541 10.635,6.332 16.438,5.464 v -5.277 c -4.504,0.895 -9.374,-0.4 -12.813,-3.888 z" style="fill:#7c8081"/><path id="path44237" d="m 478.69,203.653 c -5.553,-5.553 -5.553,-14.574 0,-20.051 5.553,-5.553 14.498,-5.553 20.051,0 l 0.076,0.078 3.625,-3.703 c -7.326,-7.326 -19.742,-7.711 -27.453,0 -7.559,7.635 -7.559,19.666 0.076,27.377 4.541,4.541 10.635,6.332 16.436,5.464 v -5.277 c -4.502,0.895 -9.371,-0.4 -12.811,-3.888 z" style="fill:#7c8081"/><path id="path44239" d="m 445.04,174.327 c -10.951,0 -19.279,8.561 -19.279,19.436 0,10.719 8.482,19.279 19.279,19.279 10.874,0 19.434,-8.56 19.434,-19.279 0,-10.952 -9.024,-19.436 -19.434,-19.436 z m 0.078,33.547 c -7.789,0 -14.191,-6.4 -14.191,-14.189 0,-7.865 6.402,-14.189 14.191,-14.189 7.866,0 14.19,6.324 14.19,14.189 0,7.788 -6.325,14.189 -14.19,14.189 z" style="fill:#7c8081"/></g><g id="g44241"><linearGradient id="SVGID_11_" x1="692.315" x2="425.761" y1="188.181" y2="188.181" gradientUnits="userSpaceOnUse"><stop style="stop-color:#00c1f3" id="stop44244" offset="0"/><stop style="stop-color:#00bbef" id="stop44246" offset=".127"/><stop style="stop-color:#00afe7" id="stop44248" offset=".302"/><stop style="stop-color:#009dda" id="stop44250" offset=".505"/><stop style="stop-color:#0085c9" id="stop44252" offset=".73"/><stop style="stop-color:#006ab5" id="stop44254" offset=".969"/><stop style="stop-color:#0066b3" id="stop44256" offset="1"/></linearGradient><path id="path44258" d="m 659.243,180.127 c -7.557,7.569 -7.574,19.563 0.084,27.14 4.5,4.451 10.492,6.272 16.207,5.531 v -5.165 c -4.395,0.756 -9.086,-0.573 -12.51,-3.961 -2.133,-2.109 -3.449,-4.711 -3.949,-7.368 l 33.1,-0.157 c 0.691,-5.81 -1.182,-11.883 -5.559,-16.211 -7.767,-7.685 -19.709,-7.486 -27.373,0.191 z m -0.185,10.965 c 0.484,-2.662 1.783,-5.271 3.904,-7.393 5.545,-5.554 14.488,-5.582 20.066,-0.063 2.133,2.112 3.451,4.713 3.949,7.371 l -27.919,0.085 z" style="fill:url(#SVGID_11_)"/><linearGradient id="SVGID_12_" x1="692.315" x2="425.761" y1="188.181" y2="188.181" gradientUnits="userSpaceOnUse"><stop style="stop-color:#00c1f3" id="stop44261" offset="0"/><stop style="stop-color:#00bbef" id="stop44263" offset=".127"/><stop style="stop-color:#00afe7" id="stop44265" offset=".302"/><stop style="stop-color:#009dda" id="stop44267" offset=".505"/><stop style="stop-color:#0085c9" id="stop44269" offset=".73"/><stop style="stop-color:#006ab5" id="stop44271" offset=".969"/><stop style="stop-color:#0066b3" id="stop44273" offset="1"/></linearGradient><path id="path44275" d="m 630.884,203.586 c -5.553,-5.553 -5.553,-14.574 0,-20.051 5.553,-5.553 14.498,-5.553 20.051,0 l 0.078,0.078 3.623,-3.703 c -7.326,-7.326 -19.742,-7.711 -27.453,0 -7.559,7.635 -7.559,19.666 0.076,27.377 4.541,4.541 10.635,6.332 16.438,5.464 v -5.277 c -4.505,0.895 -9.374,-0.399 -12.813,-3.888 z" style="fill:url(#SVGID_12_)"/><linearGradient id="SVGID_13_" x1="692.315" x2="425.761" y1="188.181" y2="188.181" gradientUnits="userSpaceOnUse"><stop style="stop-color:#00c1f3" id="stop44278" offset="0"/><stop style="stop-color:#00bbef" id="stop44280" offset=".127"/><stop style="stop-color:#00afe7" id="stop44282" offset=".302"/><stop style="stop-color:#009dda" id="stop44284" offset=".505"/><stop style="stop-color:#0085c9" id="stop44286" offset=".73"/><stop style="stop-color:#006ab5" id="stop44288" offset=".969"/><stop style="stop-color:#0066b3" id="stop44290" offset="1"/></linearGradient><path id="path44292" d="m 597.396,213.041 c 5.707,0 10.643,-2.314 14.113,-6.016 v 4.491 h 5.166 v -35.82 h -5.166 v 18.451 c -0.309,7.635 -6.479,13.727 -14.191,13.727 -7.787,0 -14.189,-6.4 -14.189,-14.268 v -17.91 h -5.166 v 17.91 c -10e-4,10.95 9.022,19.435 19.433,19.435 z" style="fill:url(#SVGID_13_)"/><g id="g44294"><linearGradient id="SVGID_14_" x1="692.315" x2="425.761" y1="188.181" y2="188.181" gradientUnits="userSpaceOnUse"><stop style="stop-color:#00c1f3" id="stop44297" offset="0"/><stop style="stop-color:#00bbef" id="stop44299" offset=".127"/><stop style="stop-color:#00afe7" id="stop44301" offset=".302"/><stop style="stop-color:#009dda" id="stop44303" offset=".505"/><stop style="stop-color:#0085c9" id="stop44305" offset=".73"/><stop style="stop-color:#006ab5" id="stop44307" offset=".969"/><stop style="stop-color:#0066b3" id="stop44309" offset="1"/></linearGradient><rect id="rect44311" width="5.371" height="48.195" x="567.737" y="163.32" style="fill:url(#SVGID_14_)"/><g id="g44313"><g id="g44315"><linearGradient id="SVGID_15_" x1="692.315" x2="425.761" y1="188.181" y2="188.181" gradientUnits="userSpaceOnUse"><stop style="stop-color:#00c1f3" id="stop44318" offset="0"/><stop style="stop-color:#00bbef" id="stop44320" offset=".127"/><stop style="stop-color:#00afe7" id="stop44322" offset=".302"/><stop style="stop-color:#009dda" id="stop44324" offset=".505"/><stop style="stop-color:#0085c9" id="stop44326" offset=".73"/><stop style="stop-color:#006ab5" id="stop44328" offset=".969"/><stop style="stop-color:#0066b3" id="stop44330" offset="1"/></linearGradient><path id="path44332" d="m 553.14,174.25 c -10.951,0 -19.279,8.561 -19.279,19.436 0,10.719 8.482,19.28 19.279,19.28 10.873,0 19.434,-8.561 19.434,-19.28 -10e-4,-10.952 -9.024,-19.436 -19.434,-19.436 z m 0.078,33.546 c -7.789,0 -14.189,-6.4 -14.189,-14.189 0,-7.865 6.4,-14.189 14.189,-14.189 7.867,0 14.189,6.324 14.189,14.189 0,7.789 -6.322,14.189 -14.189,14.189 z" style="fill:url(#SVGID_15_)"/></g><g id="g44334"><linearGradient id="SVGID_16_" x1="692.315" x2="425.761" y1="188.181" y2="188.181" gradientUnits="userSpaceOnUse"><stop style="stop-color:#00c1f3" id="stop44337" offset="0"/><stop style="stop-color:#00bbef" id="stop44339" offset=".127"/><stop style="stop-color:#00afe7" id="stop44341" offset=".302"/><stop style="stop-color:#009dda" id="stop44343" offset=".505"/><stop style="stop-color:#0085c9" id="stop44345" offset=".73"/><stop style="stop-color:#006ab5" id="stop44347" offset=".969"/><stop style="stop-color:#0066b3" id="stop44349" offset="1"/></linearGradient><path id="path44351" d="m 553.14,174.25 c -10.951,0 -19.279,8.561 -19.279,19.436 0,10.719 8.482,19.28 19.279,19.28 10.873,0 19.434,-8.561 19.434,-19.28 -10e-4,-10.952 -9.024,-19.436 -19.434,-19.436 z m 0.078,33.546 c -7.789,0 -14.189,-6.4 -14.189,-14.189 0,-7.865 6.4,-14.189 14.189,-14.189 7.867,0 14.189,6.324 14.189,14.189 0,7.789 -6.322,14.189 -14.189,14.189 z" style="fill:url(#SVGID_16_)"/></g><g id="g44353"><linearGradient id="SVGID_17_" x1="692.315" x2="425.761" y1="188.181" y2="188.181" gradientUnits="userSpaceOnUse"><stop style="stop-color:#00c1f3" id="stop44356" offset="0"/><stop style="stop-color:#00bbef" id="stop44358" offset=".127"/><stop style="stop-color:#00afe7" id="stop44360" offset=".302"/><stop style="stop-color:#009dda" id="stop44362" offset=".505"/><stop style="stop-color:#0085c9" id="stop44364" offset=".73"/><stop style="stop-color:#006ab5" id="stop44366" offset=".969"/><stop style="stop-color:#0066b3" id="stop44368" offset="1"/></linearGradient><path id="path44370" d="m 553.14,174.25 c -10.951,0 -19.279,8.561 -19.279,19.436 0,10.719 8.482,19.28 19.279,19.28 10.873,0 19.434,-8.561 19.434,-19.28 -10e-4,-10.952 -9.024,-19.436 -19.434,-19.436 z m 0.078,33.546 c -7.789,0 -14.189,-6.4 -14.189,-14.189 0,-7.865 6.4,-14.189 14.189,-14.189 7.867,0 14.189,6.324 14.189,14.189 0,7.789 -6.322,14.189 -14.189,14.189 z" style="fill:url(#SVGID_17_)"/></g></g></g><linearGradient id="SVGID_18_" x1="692.315" x2="425.761" y1="188.181" y2="188.181" gradientUnits="userSpaceOnUse"><stop style="stop-color:#00c1f3" id="stop44373" offset="0"/><stop style="stop-color:#00bbef" id="stop44375" offset=".127"/><stop style="stop-color:#00afe7" id="stop44377" offset=".302"/><stop style="stop-color:#009dda" id="stop44379" offset=".505"/><stop style="stop-color:#0085c9" id="stop44381" offset=".73"/><stop style="stop-color:#006ab5" id="stop44383" offset=".969"/><stop style="stop-color:#0066b3" id="stop44385" offset="1"/></linearGradient><path id="path44387" d="m 510.79,203.653 c -5.553,-5.553 -5.553,-14.574 0,-20.051 5.553,-5.553 14.498,-5.553 20.051,0 l 0.078,0.078 3.623,-3.703 c -7.326,-7.326 -19.742,-7.711 -27.453,0 -7.559,7.635 -7.559,19.666 0.076,27.377 4.541,4.541 10.635,6.332 16.438,5.464 v -5.277 c -4.504,0.895 -9.374,-0.4 -12.813,-3.888 z" style="fill:url(#SVGID_18_)"/><linearGradient id="SVGID_19_" x1="692.315" x2="425.761" y1="188.181" y2="188.181" gradientUnits="userSpaceOnUse"><stop style="stop-color:#00c1f3" id="stop44390" offset="0"/><stop style="stop-color:#00bbef" id="stop44392" offset=".127"/><stop style="stop-color:#00afe7" id="stop44394" offset=".302"/><stop style="stop-color:#009dda" id="stop44396" offset=".505"/><stop style="stop-color:#0085c9" id="stop44398" offset=".73"/><stop style="stop-color:#006ab5" id="stop44400" offset=".969"/><stop style="stop-color:#0066b3" id="stop44402" offset="1"/></linearGradient><path id="path44404" d="m 478.69,203.653 c -5.553,-5.553 -5.553,-14.574 0,-20.051 5.553,-5.553 14.498,-5.553 20.051,0 l 0.076,0.078 3.625,-3.703 c -7.326,-7.326 -19.742,-7.711 -27.453,0 -7.559,7.635 -7.559,19.666 0.076,27.377 4.541,4.541 10.635,6.332 16.436,5.464 v -5.277 c -4.502,0.895 -9.371,-0.4 -12.811,-3.888 z" style="fill:url(#SVGID_19_)"/><linearGradient id="SVGID_20_" x1="692.315" x2="425.761" y1="188.181" y2="188.181" gradientUnits="userSpaceOnUse"><stop style="stop-color:#00c1f3" id="stop44407" offset="0"/><stop style="stop-color:#00bbef" id="stop44409" offset=".127"/><stop style="stop-color:#00afe7" id="stop44411" offset=".302"/><stop style="stop-color:#009dda" id="stop44413" offset=".505"/><stop style="stop-color:#0085c9" id="stop44415" offset=".73"/><stop style="stop-color:#006ab5" id="stop44417" offset=".969"/><stop style="stop-color:#0066b3" id="stop44419" offset="1"/></linearGradient><path id="path44421" d="m 445.04,174.327 c -10.951,0 -19.279,8.561 -19.279,19.436 0,10.719 8.482,19.279 19.279,19.279 10.874,0 19.434,-8.56 19.434,-19.279 0,-10.952 -9.024,-19.436 -19.434,-19.436 z m 0.078,33.547 c -7.789,0 -14.191,-6.4 -14.191,-14.189 0,-7.865 6.402,-14.189 14.191,-14.189 7.866,0 14.19,6.324 14.19,14.189 0,7.788 -6.325,14.189 -14.19,14.189 z" style="fill:url(#SVGID_20_)"/></g></g><g id="Ocsigen_11_" display="inline" style="display:inline"><path id="path44631" d="m 477.615,144.212 c -2.559,0 -4.771,1.037 -6.328,2.697 v -2.457 h -2.316 v 17.15 h 2.316 v -8.92 c 0.139,-3.424 2.904,-6.154 6.361,-6.154 3.492,0 6.363,2.869 6.363,6.396 v 8.678 h 2.316 v -8.678 c 10e-4,-4.909 -4.046,-8.712 -8.712,-8.712 z" style="fill:#7c8081"/><path id="path44633" d="m 452.086,146.866 c -3.39,3.408 -3.398,8.813 0.037,12.225 2.018,2.004 4.705,2.824 7.268,2.492 v -2.328 c -1.971,0.342 -4.074,-0.258 -5.609,-1.783 -0.955,-0.951 -1.547,-2.123 -1.77,-3.32 l 14.84,-0.07 c 0.309,-2.615 -0.531,-5.352 -2.492,-7.303 -3.483,-3.46 -8.839,-3.372 -12.274,0.087 z m -0.082,4.94 c 0.217,-1.199 0.799,-2.375 1.75,-3.332 2.486,-2.5 6.496,-2.514 8.996,-0.027 0.957,0.951 1.547,2.123 1.771,3.32 l -12.517,0.039 z" style="fill:#7c8081"/><path id="path44635" d="m 438.721,144.315 c -4.91,0 -8.645,3.838 -8.645,8.713 0,4.805 3.805,8.643 8.645,8.643 2.559,0 4.807,-1.037 6.398,-2.73 v 0.066 c 0,3.527 -2.803,6.328 -6.328,6.328 v 2.316 c 4.84,0 8.643,-3.838 8.643,-8.645 v -6.014 c -0.033,-4.874 -4.078,-8.677 -8.713,-8.677 z m 6.399,8.956 c -0.139,3.387 -2.975,6.084 -6.363,6.084 -3.525,0 -6.363,-2.834 -6.363,-6.361 0,-3.492 2.838,-6.361 6.363,-6.361 3.492,0 6.363,2.869 6.363,6.361 v 0.277 z" style="fill:#7c8081"/><g id="g44637"><path id="path44639" d="m 426.755,143.487 c -1.037,0 -1.971,0.9 -1.971,2.006 0,1.107 0.934,1.971 1.971,1.971 1.107,0 2.005,-0.863 2.005,-1.971 0,-1.105 -0.898,-2.006 -2.005,-2.006 z" style="fill:#2ba9e0"/><rect id="rect44641" width="2.316" height="12.281" x="425.614" y="149.321" style="fill:#7c8081"/></g><path id="path44643" d="m 414.792,152.925 c 0,2.783 -1.783,5.145 -4.291,5.99 l -0.088,-0.088 v 0.119 c -0.613,0.197 -1.266,0.305 -1.949,0.305 v 2.316 c 0.674,0 1.324,-0.08 1.949,-0.221 3.873,-0.871 6.695,-4.285 6.695,-8.422 0,-3.172 2.313,-5.795 5.379,-6.25 v -2.342 c -4.381,0.466 -7.695,4.105 -7.695,8.593 z" style="fill:#7c8081"/><path id="path44645" d="m 399.981,157.384 c -2.49,-2.488 -2.49,-6.533 0,-8.988 2.488,-2.49 6.5,-2.49 8.988,0 l 0.035,0.033 1.625,-1.658 c -3.285,-3.285 -8.852,-3.459 -12.309,0 -3.389,3.422 -3.389,8.816 0.033,12.273 2.037,2.035 4.77,2.84 7.369,2.449 v -2.365 c -2.016,0.4 -4.2,-0.18 -5.741,-1.744 z" style="fill:#7c8081"/><path id="path44647" d="m 385.251,144.351 c -4.909,0 -8.643,3.836 -8.643,8.713 0,4.805 3.803,8.643 8.643,8.643 4.875,0 8.713,-3.838 8.713,-8.643 0,-4.911 -4.045,-8.713 -8.713,-8.713 z m 0.035,15.039 c -3.492,0 -6.362,-2.869 -6.362,-6.361 0,-3.527 2.87,-6.363 6.362,-6.363 3.527,0 6.361,2.836 6.361,6.363 0,3.492 -2.834,6.361 -6.361,6.361 z" style="fill:#7c8081"/></g><g id="Fresh_air_in_web_programming_12_" display="inline" style="display:inline"><path id="path44650" d="m 450.807,165.301 h -0.695 l 0.096,-0.515 h 0.694 c 0.132,-0.622 0.374,-1.669 2.028,-1.685 l -0.098,0.531 c -1.161,0 -1.281,0.736 -1.357,1.153 h 1.145 l -0.096,0.515 h -1.145 l -0.731,3.959 h -0.572 l 0.731,-3.958 z" style="fill:#7c8081"/><path id="path44652" d="m 453.148,164.786 h 0.572 l -0.119,0.646 h 0.017 c 0.386,-0.629 0.911,-0.728 1.399,-0.76 l -0.111,0.604 c -0.406,0.033 -0.777,0.181 -1.047,0.442 -0.241,0.245 -0.415,0.564 -0.481,0.924 l -0.483,2.617 h -0.572 l 0.825,-4.473 z" style="fill:#7c8081"/><path id="path44654" d="m 455.492,167.231 c -0.121,0.875 0.561,1.619 1.436,1.619 0.82,-0.017 1.49,-0.499 1.797,-1.055 h 0.605 c -0.475,0.892 -1.459,1.57 -2.49,1.57 -1.251,0 -2.143,-1.015 -1.898,-2.339 0.234,-1.268 1.453,-2.331 2.758,-2.355 0.98,0.008 1.568,0.589 1.784,1.145 0.214,0.482 0.187,0.981 0.082,1.415 h -4.074 z m 3.588,-0.515 c 0.015,-1.055 -0.756,-1.529 -1.468,-1.529 -0.704,0 -1.666,0.475 -2.024,1.529 h 3.492 z" style="fill:#7c8081"/><path id="path44656" d="m 460.543,167.935 c -0.141,0.851 0.428,0.916 0.633,0.916 0.539,0 0.893,-0.318 0.981,-0.802 0.113,-0.613 -0.417,-0.752 -0.727,-0.891 -0.429,-0.156 -1.112,-0.401 -0.956,-1.243 0.116,-0.63 0.68,-1.243 1.506,-1.243 0.67,0 1.131,0.515 0.992,1.219 H 462.4 c 0.061,-0.549 -0.287,-0.704 -0.541,-0.704 -0.457,0 -0.746,0.368 -0.802,0.671 -0.088,0.475 0.356,0.638 0.663,0.744 0.492,0.172 1.191,0.458 1.021,1.383 -0.134,0.769 -0.713,1.382 -1.662,1.382 -0.621,0 -1.32,-0.426 -1.109,-1.432 h 0.573 z" style="fill:#7c8081"/><path id="path44658" d="m 464.324,163.207 h 0.572 l -0.396,2.151 h 0.016 c 0.223,-0.27 0.74,-0.687 1.502,-0.687 0.547,0 0.98,0.139 1.313,0.548 0.274,0.327 0.4,0.842 0.265,1.578 l -0.455,2.462 h -0.572 l 0.455,-2.462 c 0.107,-0.581 0.002,-0.989 -0.199,-1.227 -0.255,-0.303 -0.648,-0.385 -0.902,-0.385 -0.254,0 -0.678,0.082 -1.044,0.385 -0.29,0.237 -0.545,0.646 -0.644,1.227 l -0.455,2.462 h -0.572 l 1.116,-6.052 z" style="fill:#7c8081"/><path id="path44660" d="m 475.027,169.26 h -0.573 l 0.146,-0.785 h -0.017 c -0.627,0.736 -1.44,0.892 -1.907,0.892 -1.406,0 -2.206,-1.071 -1.969,-2.355 0.221,-1.194 1.372,-2.339 2.836,-2.339 0.482,0 1.239,0.155 1.576,0.899 h 0.017 l 0.146,-0.785 h 0.572 l -0.827,4.473 z m -2.256,-0.409 c 0.965,0 1.935,-0.776 2.128,-1.823 0.181,-0.981 -0.421,-1.841 -1.451,-1.841 -0.981,0 -1.964,0.712 -2.174,1.849 -0.184,0.997 0.402,1.815 1.497,1.815 z" style="fill:#7c8081"/><path id="path44662" d="m 476.887,164.786 h 0.572 l -0.826,4.474 h -0.572 l 0.826,-4.474 z m 0.291,-1.579 h 0.573 l -0.19,1.031 h -0.572 l 0.189,-1.031 z" style="fill:#7c8081"/><path id="path44664" d="m 478.521,164.786 h 0.572 l -0.119,0.646 h 0.016 c 0.387,-0.629 0.912,-0.728 1.4,-0.76 l -0.111,0.604 c -0.407,0.033 -0.777,0.181 -1.047,0.442 -0.242,0.245 -0.416,0.564 -0.482,0.924 l -0.482,2.617 h -0.572 l 0.825,-4.473 z" style="fill:#7c8081"/><path id="path44666" d="m 483.244,164.786 h 0.572 l -0.826,4.474 h -0.572 l 0.826,-4.474 z m 0.291,-1.579 h 0.573 l -0.19,1.031 h -0.572 l 0.189,-1.031 z" style="fill:#7c8081"/><path id="path44668" d="m 484.879,164.786 h 0.572 l -0.105,0.572 h 0.016 c 0.222,-0.27 0.74,-0.687 1.501,-0.687 0.548,0 0.98,0.139 1.313,0.548 0.275,0.327 0.401,0.842 0.266,1.578 l -0.455,2.462 h -0.572 l 0.454,-2.462 c 0.107,-0.581 0.003,-0.989 -0.198,-1.227 -0.256,-0.303 -0.648,-0.385 -0.902,-0.385 -0.254,0 -0.678,0.082 -1.045,0.385 -0.289,0.237 -0.545,0.646 -0.644,1.227 l -0.454,2.462 h -0.572 l 0.825,-4.473 z" style="fill:#7c8081"/><path id="path44670" d="m 491.701,164.786 h 0.597 l 0.715,3.746 h 0.017 l 1.614,-3.206 h 0.499 l 0.438,3.206 h 0.017 l 2.115,-3.746 h 0.589 l -2.536,4.474 h -0.646 l -0.398,-2.977 h -0.017 l -1.481,2.977 h -0.646 l -0.877,-4.474 z" style="fill:#7c8081"/><path id="path44672" d="m 498.672,167.231 c -0.121,0.875 0.56,1.619 1.435,1.619 0.821,-0.017 1.491,-0.499 1.798,-1.055 h 0.605 c -0.476,0.892 -1.46,1.57 -2.49,1.57 -1.251,0 -2.144,-1.015 -1.898,-2.339 0.233,-1.268 1.452,-2.331 2.758,-2.355 0.979,0.008 1.567,0.589 1.783,1.145 0.214,0.482 0.188,0.981 0.083,1.415 h -4.074 z m 3.587,-0.515 c 0.016,-1.055 -0.756,-1.529 -1.468,-1.529 -0.703,0 -1.666,0.475 -2.024,1.529 h 3.492 z" style="fill:#7c8081"/><path id="path44674" d="m 504.382,163.207 h 0.572 l -0.437,2.364 h 0.017 c 0.642,-0.728 1.426,-0.899 1.908,-0.899 1.464,0 2.193,1.145 1.973,2.339 -0.237,1.284 -1.433,2.355 -2.84,2.355 -0.466,0 -1.213,-0.164 -1.577,-0.892 h -0.017 l -0.145,0.785 h -0.573 l 1.119,-6.052 z m 1.966,1.98 c -1.031,0 -1.95,0.859 -2.131,1.841 -0.193,1.047 0.488,1.823 1.454,1.823 1.096,0 1.982,-0.817 2.167,-1.815 0.21,-1.138 -0.509,-1.849 -1.49,-1.849 z" style="fill:#7c8081"/><path id="path44676" d="m 511.895,164.786 h 0.572 l -0.145,0.785 h 0.017 c 0.65,-0.736 1.426,-0.899 1.908,-0.899 1.464,0 2.192,1.145 1.973,2.339 -0.237,1.284 -1.434,2.355 -2.84,2.355 -0.467,0 -1.213,-0.164 -1.577,-0.892 h -0.017 l -0.436,2.355 h -0.572 l 1.117,-6.043 z m 2.256,0.401 c -1.03,0 -1.949,0.859 -2.131,1.841 -0.193,1.047 0.489,1.823 1.454,1.823 1.096,0 1.983,-0.817 2.168,-1.815 0.211,-1.138 -0.509,-1.849 -1.491,-1.849 z" style="fill:#7c8081"/><path id="path44678" d="m 517.476,164.786 h 0.572 l -0.119,0.646 h 0.016 c 0.387,-0.629 0.912,-0.728 1.4,-0.76 l -0.112,0.604 c -0.406,0.033 -0.777,0.181 -1.046,0.442 -0.242,0.245 -0.415,0.564 -0.481,0.924 l -0.483,2.617 h -0.573 l 0.826,-4.473 z" style="fill:#7c8081"/><path id="path44680" d="m 521.938,164.672 c 1.325,0 2.141,1.12 1.914,2.347 -0.225,1.219 -1.439,2.348 -2.78,2.348 -1.309,0 -2.128,-1.104 -1.904,-2.314 0.261,-1.416 1.592,-2.381 2.77,-2.381 z m -0.764,4.179 c 0.867,0 1.894,-0.687 2.109,-1.856 0.218,-1.178 -0.663,-1.808 -1.433,-1.808 -0.817,0 -1.89,0.671 -2.109,1.856 -0.191,1.039 0.509,1.808 1.433,1.808 z" style="fill:#7c8081"/><path id="path44682" d="m 528.854,168.557 c -0.089,0.482 -0.2,1.088 -0.711,1.636 -0.709,0.785 -1.747,0.826 -1.927,0.826 -0.639,0 -1.836,-0.246 -1.987,-1.645 h 0.605 c 0.079,0.368 0.381,1.129 1.469,1.129 0.752,0 1.699,-0.434 1.927,-1.669 l 0.073,-0.393 h -0.017 c -0.453,0.639 -1.242,0.925 -1.896,0.925 -1.178,0 -2.17,-0.916 -1.91,-2.323 0.263,-1.423 1.6,-2.371 2.777,-2.371 0.409,0 1.188,0.122 1.557,0.916 h 0.017 l 0.147,-0.802 h 0.572 l -0.696,3.771 z m -2.37,0.294 c 1.187,0 1.972,-1.063 2.112,-1.823 0.181,-0.981 -0.429,-1.841 -1.436,-1.841 -1.014,0 -1.925,0.859 -2.106,1.841 -0.179,0.972 0.417,1.823 1.43,1.823 z" style="fill:#7c8081"/><path id="path44684" d="m 530.626,164.786 h 0.572 l -0.119,0.646 h 0.016 c 0.387,-0.629 0.912,-0.728 1.4,-0.76 l -0.112,0.604 c -0.406,0.033 -0.777,0.181 -1.046,0.442 -0.242,0.245 -0.415,0.564 -0.481,0.924 l -0.483,2.617 H 529.8 l 0.826,-4.473 z" style="fill:#7c8081"/><path id="path44686" d="m 536.645,169.26 h -0.572 l 0.145,-0.785 H 536.2 c -0.626,0.736 -1.44,0.892 -1.906,0.892 -1.407,0 -2.207,-1.071 -1.97,-2.355 0.221,-1.194 1.373,-2.339 2.837,-2.339 0.482,0 1.239,0.155 1.576,0.899 h 0.016 l 0.146,-0.785 h 0.572 l -0.826,4.473 z m -2.256,-0.409 c 0.966,0 1.935,-0.776 2.128,-1.823 0.182,-0.981 -0.42,-1.841 -1.451,-1.841 -0.981,0 -1.963,0.712 -2.173,1.849 -0.185,0.997 0.4,1.815 1.496,1.815 z" style="fill:#7c8081"/><path id="path44688" d="m 538.513,164.786 h 0.572 l -0.095,0.515 -0.014,-0.016 -0.003,0.016 h 0.017 c 0.335,-0.441 0.918,-0.629 1.335,-0.629 0.376,0 1.138,0.172 1.346,0.858 0.463,-0.687 1.287,-0.858 1.664,-0.858 0.687,0 1.715,0.408 1.435,1.93 l -0.491,2.658 h -0.572 l 0.479,-2.593 c 0.091,-0.49 0.045,-0.728 -0.032,-0.933 -0.129,-0.318 -0.431,-0.548 -0.913,-0.548 -0.482,0 -0.868,0.229 -1.115,0.548 -0.152,0.205 -0.286,0.442 -0.377,0.933 l -0.479,2.593 h -0.572 l 0.479,-2.593 c 0.091,-0.49 0.045,-0.728 -0.032,-0.933 -0.129,-0.318 -0.431,-0.548 -0.913,-0.548 -0.482,0 -0.868,0.229 -1.115,0.548 -0.152,0.205 -0.286,0.442 -0.377,0.933 l -0.479,2.593 h -0.572 l 0.824,-4.474 z" style="fill:#7c8081"/><path id="path44690" d="m 546.177,164.786 h 0.572 l -0.095,0.515 -0.014,-0.016 -0.003,0.016 h 0.017 c 0.335,-0.441 0.918,-0.629 1.335,-0.629 0.376,0 1.138,0.172 1.346,0.858 0.463,-0.687 1.287,-0.858 1.664,-0.858 0.687,0 1.715,0.408 1.435,1.93 l -0.491,2.658 h -0.572 l 0.479,-2.593 c 0.091,-0.49 0.045,-0.728 -0.032,-0.933 -0.129,-0.318 -0.431,-0.548 -0.913,-0.548 -0.482,0 -0.868,0.229 -1.115,0.548 -0.152,0.205 -0.286,0.442 -0.377,0.933 l -0.479,2.593 h -0.572 l 0.479,-2.593 c 0.091,-0.49 0.045,-0.728 -0.032,-0.933 -0.129,-0.318 -0.431,-0.548 -0.913,-0.548 -0.482,0 -0.868,0.229 -1.115,0.548 -0.152,0.205 -0.286,0.442 -0.377,0.933 l -0.479,2.593 h -0.572 l 0.824,-4.474 z" style="fill:#7c8081"/><path id="path44692" d="m 553.834,164.786 h 0.572 l -0.826,4.474 h -0.573 l 0.827,-4.474 z m 0.291,-1.579 h 0.572 l -0.19,1.031 h -0.572 l 0.19,-1.031 z" style="fill:#7c8081"/><path id="path44694" d="m 555.469,164.786 h 0.572 l -0.106,0.572 h 0.017 c 0.222,-0.27 0.74,-0.687 1.501,-0.687 0.548,0 0.98,0.139 1.313,0.548 0.275,0.327 0.401,0.842 0.265,1.578 l -0.454,2.462 h -0.572 l 0.454,-2.462 c 0.107,-0.581 0.003,-0.989 -0.198,-1.227 -0.255,-0.303 -0.649,-0.385 -0.902,-0.385 -0.254,0 -0.678,0.082 -1.045,0.385 -0.289,0.237 -0.544,0.646 -0.644,1.227 l -0.454,2.462 h -0.573 l 0.826,-4.473 z" style="fill:#7c8081"/><path id="path44696" d="m 564.181,168.557 c -0.089,0.482 -0.2,1.088 -0.711,1.636 -0.709,0.785 -1.747,0.826 -1.927,0.826 -0.639,0 -1.836,-0.246 -1.987,-1.645 h 0.605 c 0.079,0.368 0.381,1.129 1.469,1.129 0.752,0 1.699,-0.434 1.927,-1.669 l 0.073,-0.393 h -0.017 c -0.453,0.639 -1.242,0.925 -1.896,0.925 -1.178,0 -2.17,-0.916 -1.91,-2.323 0.263,-1.423 1.6,-2.371 2.777,-2.371 0.409,0 1.188,0.122 1.557,0.916 h 0.017 l 0.147,-0.802 h 0.572 l -0.696,3.771 z m -2.369,0.294 c 1.187,0 1.972,-1.063 2.112,-1.823 0.181,-0.981 -0.429,-1.841 -1.436,-1.841 -1.014,0 -1.925,0.859 -2.106,1.841 -0.18,0.972 0.416,1.823 1.43,1.823 z" style="fill:#7c8081"/></g></g></g></svg>