<svg xmlns="http://www.w3.org/2000/svg" xmlns:svg="http://www.w3.org/2000/svg" xmlns:xlink="http://www.w3.org/1999/xlink" id="svg85114" width="117.033" height="25.774" x="0" y="0" enable-background="new 0 0 801 346" version="1.1" viewBox="0 0 109.718 24.163" xml:space="preserve"><metadata id="metadata126035"/><defs id="defs126033"><radialGradient id="radialGradient139240" cx="612.852" cy="146.102" r="130.009" gradientTransform="matrix(1,0,0,0.9961,0,0.5309)" gradientUnits="userSpaceOnUse" xlink:href="#SVGID_2061_"/></defs><g id="Texte_4_" display="inline" transform="translate(-376.607,-143.488)" style="display:inline"><g id="Server_1_"><radialGradient id="SVGID_2057_" cx="612.856" cy="146.44" r="127.716" gradientUnits="userSpaceOnUse"><stop style="stop-color:#ee4136" id="stop118988" offset="0"/><stop style="stop-color:#be202f" id="stop118990" offset="1"/></radialGradient><radialGradient id="SVGID_2058_" cx="612.856" cy="145.977" r="130.01" gradientTransform="matrix(1,0,0,0.9957,0,0.7568)" gradientUnits="userSpaceOnUse"><stop style="stop-color:#ee4136" id="stop118995" offset="0"/><stop style="stop-color:#be202f" id="stop118997" offset="1"/></radialGradient><radialGradient id="SVGID_2059_" cx="608.87" cy="148.169" r="124.581" gradientUnits="userSpaceOnUse"><stop style="stop-color:#ee4136" id="stop119002" offset="0"/><stop style="stop-color:#be202f" id="stop119004" offset="1"/></radialGradient><radialGradient id="SVGID_2060_" cx="612.854" cy="146.034" r="130.013" gradientTransform="matrix(1,0,0,1.0033,0,-0.7063)" gradientUnits="userSpaceOnUse"><stop style="stop-color:#ee4136" id="stop119009" offset="0"/><stop style="stop-color:#be202f" id="stop119011" offset="1"/></radialGradient><radialGradient id="SVGID_2061_" cx="612.852" cy="146.102" r="130.009" gradientTransform="matrix(1,0,0,0.9961,0,0.5309)" gradientUnits="userSpaceOnUse"><stop style="stop-color:#ee4136" id="stop119016" offset="0"/><stop style="stop-color:#be202f" id="stop119018" offset="1"/></radialGradient><radialGradient id="SVGID_2062_" cx="612.856" cy="145.151" r="130.013" gradientTransform="matrix(1,0,0,0.9879,0,2.5696)" gradientUnits="userSpaceOnUse"><stop style="stop-color:#ee4136" id="stop119023" offset="0"/><stop style="stop-color:#be202f" id="stop119025" offset="1"/></radialGradient></g><g id="Ocsigen_3_"><path id="path119079" d="m 477.613,144.212 c -2.559,0 -4.771,1.037 -6.328,2.697 v -2.456 h -2.316 v 17.15 h 2.316 v -8.921 c 0.139,-3.423 2.904,-6.154 6.361,-6.154 3.492,0 6.363,2.87 6.363,6.396 v 8.679 h 2.316 v -8.679 c 0.001,-4.909 -4.046,-8.712 -8.712,-8.712 z" style="fill:#7c8081"/><path id="path119081" d="m 452.084,146.866 c -3.388,3.409 -3.396,8.813 0.037,12.225 2.018,2.005 4.705,2.825 7.268,2.492 v -2.327 c -1.971,0.341 -4.074,-0.258 -5.609,-1.784 -0.955,-0.95 -1.547,-2.122 -1.77,-3.319 l 14.84,-0.07 c 0.309,-2.616 -0.531,-5.353 -2.492,-7.303 -3.483,-3.461 -8.838,-3.372 -12.274,0.086 z m -0.082,4.94 c 0.217,-1.199 0.799,-2.374 1.75,-3.331 2.486,-2.501 6.496,-2.514 8.996,-0.027 0.957,0.95 1.547,2.122 1.771,3.319 z" style="fill:#7c8081"/><path id="path119083" d="m 438.721,144.315 c -4.909,0 -8.644,3.838 -8.644,8.713 0,4.806 3.804,8.644 8.644,8.644 2.559,0 4.807,-1.037 6.397,-2.731 v 0.067 c 0,3.526 -2.802,6.327 -6.328,6.327 v 2.316 c 4.841,0 8.644,-3.838 8.644,-8.644 v -6.014 c -0.034,-4.874 -4.079,-8.678 -8.713,-8.678 z m 6.398,8.956 c -0.139,3.388 -2.975,6.085 -6.362,6.085 -3.526,0 -6.362,-2.835 -6.362,-6.361 0,-3.492 2.836,-6.362 6.362,-6.362 3.492,0 6.362,2.87 6.362,6.362 z" style="fill:#7c8081"/><g id="g119085"><path id="path119087" d="m 426.754,143.488 c -1.037,0 -1.971,0.899 -1.971,2.006 0,1.107 0.934,1.971 1.971,1.971 1.107,0 2.006,-0.864 2.006,-1.971 0,-1.107 -0.898,-2.006 -2.006,-2.006 z" style="fill:gray"/><rect id="rect119089" width="2.316" height="12.282" x="425.614" y="149.321" style="fill:#7c8081"/></g><path id="path119091" d="m 414.792,152.925 c 0,2.784 -1.783,5.146 -4.291,5.99 l -0.088,-0.087 v 0.119 c -0.612,0.196 -1.266,0.305 -1.948,0.305 v 2.316 c 0.673,0 1.323,-0.081 1.948,-0.222 3.873,-0.871 6.695,-4.284 6.695,-8.422 0,-3.172 2.313,-5.794 5.379,-6.25 v -2.342 c -4.38,0.466 -7.695,4.106 -7.695,8.593 z" style="fill:#7c8081"/><path id="path119093" d="m 399.981,157.385 c -2.49,-2.489 -2.49,-6.534 0,-8.989 2.488,-2.489 6.5,-2.489 8.988,0 l 0.035,0.034 1.625,-1.659 c -3.285,-3.284 -8.852,-3.458 -12.309,0 -3.389,3.423 -3.389,8.816 0.034,12.274 2.036,2.035 4.769,2.839 7.369,2.449 v -2.366 c -2.017,0.401 -4.201,-0.179 -5.742,-1.743 z" style="fill:#7c8081"/><path id="path119095" d="m 385.251,144.351 c -4.909,0 -8.644,3.837 -8.644,8.713 0,4.806 3.803,8.644 8.644,8.644 4.875,0 8.713,-3.838 8.713,-8.644 0,-4.911 -4.046,-8.713 -8.713,-8.713 z m 0.035,15.04 c -3.492,0 -6.361,-2.87 -6.361,-6.362 0,-3.526 2.869,-6.362 6.361,-6.362 3.527,0 6.362,2.836 6.362,6.362 0,3.492 -2.835,6.362 -6.362,6.362 z" style="fill:#7c8081"/></g></g></svg>