<svg xmlns="http://www.w3.org/2000/svg" xmlns:svg="http://www.w3.org/2000/svg" xmlns:xlink="http://www.w3.org/1999/xlink" id="svg85114" width="258.719" height="59.023" x="0" y="0" enable-background="new 0 0 801 346" version="1.1" viewBox="0 0 258.719 59.023" xml:space="preserve"><metadata id="metadata126035"/><defs id="defs126033"><linearGradient id="linearGradient139457" x1="668.959" x2="420.857" y1="182.46" y2="231.799" gradientUnits="userSpaceOnUse" xlink:href="#SVGID_2265_"/><linearGradient id="linearGradient139459" x1="667.177" x2="419.084" y1="173.509" y2="222.846" gradientUnits="userSpaceOnUse" xlink:href="#SVGID_2266_"/><linearGradient id="linearGradient139461" x1="666.801" x2="418.707" y1="171.615" y2="220.952" gradientUnits="userSpaceOnUse" xlink:href="#SVGID_2267_"/><linearGradient id="linearGradient139463" x1="665.471" x2="417.409" y1="165.037" y2="214.367" gradientUnits="userSpaceOnUse" xlink:href="#SVGID_2268_"/><linearGradient id="linearGradient139465" x1="660.959" x2="412.907" y1="142.386" y2="191.714" gradientUnits="userSpaceOnUse" xlink:href="#SVGID_2269_"/><linearGradient id="linearGradient139467" x1="663.372" x2="415.282" y1="154.389" y2="203.725" gradientUnits="userSpaceOnUse" xlink:href="#SVGID_2270_"/><linearGradient id="linearGradient139469" x1="662.341" x2="414.244" y1="149.169" y2="198.507" gradientUnits="userSpaceOnUse" xlink:href="#SVGID_2271_"/><linearGradient id="linearGradient139471" x1="660.665" x2="412.576" y1="140.781" y2="190.117" gradientUnits="userSpaceOnUse" xlink:href="#SVGID_2272_"/><linearGradient id="linearGradient139473" x1="597.342" x2="625.429" y1="216.656" y2="176.543" gradientUnits="userSpaceOnUse" xlink:href="#SVGID_2273_"/><linearGradient id="linearGradient139475" x1="555.153" x2="578.647" y1="209.391" y2="175.838" gradientUnits="userSpaceOnUse" xlink:href="#SVGID_2274_"/><linearGradient id="linearGradient139477" x1="508.962" x2="536.859" y1="218.861" y2="179.02" gradientUnits="userSpaceOnUse" xlink:href="#SVGID_2275_"/><linearGradient id="linearGradient139479" x1="485.908" x2="501.312" y1="210.213" y2="188.214" gradientUnits="userSpaceOnUse" xlink:href="#SVGID_2276_"/><linearGradient id="linearGradient139481" x1="490.313" x2="496.927" y1="178.995" y2="172.38" gradientUnits="userSpaceOnUse" xlink:href="#SVGID_2277_"/><linearGradient id="linearGradient139483" x1="452.706" x2="482.679" y1="215.198" y2="172.392" gradientUnits="userSpaceOnUse" xlink:href="#SVGID_2278_"/><linearGradient id="linearGradient139485" x1="426.655" x2="450.134" y1="208.088" y2="174.556" gradientUnits="userSpaceOnUse" xlink:href="#SVGID_2279_"/><linearGradient id="linearGradient139487" x1="383.978" x2="407.469" y1="210.299" y2="176.751" gradientUnits="userSpaceOnUse" xlink:href="#SVGID_2280_"/></defs><g id="Texte_2_" display="inline" transform="translate(-375.32,-170.979)" style="display:inline"><g id="Fresh_air_in_web_programming_3_"><path id="path122368" d="m 453.953,223.965 h -0.734 l 0.101,-0.545 h 0.733 c 0.14,-0.656 0.396,-1.762 2.145,-1.777 l -0.104,0.561 c -1.226,0 -1.353,0.777 -1.435,1.217 h 1.209 l -0.102,0.545 h -1.209 l -0.775,4.18 h -0.604 l 0.775,-4.181 z" style="fill:#7c8081"/><path id="path122370" d="m 456.43,223.42 h 0.604 l -0.127,0.684 h 0.018 c 0.408,-0.666 0.963,-0.77 1.479,-0.803 l -0.118,0.639 c -0.43,0.033 -0.822,0.189 -1.105,0.467 -0.256,0.258 -0.439,0.596 -0.51,0.975 l -0.513,2.764 h -0.604 l 0.876,-4.726 z" style="fill:#7c8081"/><path id="path122372" d="m 458.905,226.004 c -0.128,0.924 0.59,1.709 1.514,1.709 0.867,-0.018 1.575,-0.527 1.899,-1.113 h 0.639 c -0.502,0.941 -1.542,1.658 -2.631,1.658 -1.32,0 -2.262,-1.072 -2.002,-2.471 0.248,-1.338 1.535,-2.461 2.914,-2.486 1.034,0.008 1.654,0.621 1.883,1.209 0.225,0.51 0.196,1.035 0.086,1.494 h -4.302 z m 3.789,-0.545 c 0.017,-1.113 -0.798,-1.615 -1.549,-1.615 -0.743,0 -1.76,0.502 -2.14,1.615 h 3.689 z" style="fill:#7c8081"/><path id="path122374" d="m 464.244,226.746 c -0.148,0.898 0.451,0.967 0.668,0.967 0.569,0 0.943,-0.336 1.037,-0.846 0.121,-0.648 -0.439,-0.795 -0.767,-0.941 -0.453,-0.164 -1.173,-0.424 -1.009,-1.313 0.123,-0.666 0.719,-1.313 1.592,-1.313 0.707,0 1.193,0.543 1.047,1.285 h -0.604 c 0.063,-0.578 -0.303,-0.742 -0.57,-0.742 -0.484,0 -0.789,0.389 -0.849,0.709 -0.093,0.5 0.376,0.674 0.7,0.785 0.52,0.182 1.258,0.484 1.076,1.459 -0.142,0.813 -0.754,1.461 -1.756,1.461 -0.656,0 -1.394,-0.449 -1.17,-1.512 h 0.605 z" style="fill:#7c8081"/><path id="path122376" d="m 468.246,221.754 h 0.604 l -0.421,2.271 h 0.017 c 0.234,-0.285 0.782,-0.725 1.585,-0.725 0.579,0 1.035,0.146 1.387,0.578 0.291,0.346 0.423,0.889 0.279,1.666 l -0.482,2.6 h -0.605 l 0.482,-2.6 c 0.114,-0.613 0.004,-1.045 -0.209,-1.295 -0.268,-0.32 -0.684,-0.406 -0.951,-0.406 -0.269,0 -0.717,0.086 -1.104,0.406 -0.306,0.25 -0.576,0.682 -0.682,1.295 l -0.481,2.6 h -0.604 l 1.185,-6.39 z" style="fill:#7c8081"/><path id="path122378" d="m 479.551,228.145 h -0.605 l 0.154,-0.828 h -0.018 c -0.662,0.777 -1.521,0.941 -2.014,0.941 -1.484,0 -2.329,-1.133 -2.078,-2.488 0.234,-1.26 1.451,-2.469 2.998,-2.469 0.51,0 1.309,0.164 1.664,0.949 h 0.016 l 0.154,-0.83 h 0.605 l -0.876,4.725 z m -2.381,-0.432 c 1.02,0 2.043,-0.82 2.248,-1.926 0.193,-1.037 -0.443,-1.943 -1.531,-1.943 -1.035,0 -2.074,0.752 -2.297,1.951 -0.195,1.055 0.422,1.918 1.58,1.918 z" style="fill:#7c8081"/><path id="path122380" d="m 481.525,223.42 h 0.604 l -0.875,4.725 h -0.605 l 0.876,-4.725 z m 0.309,-1.666 h 0.605 l -0.203,1.088 h -0.604 l 0.202,-1.088 z" style="fill:#7c8081"/><path id="path122382" d="m 483.254,223.42 h 0.604 l -0.125,0.684 h 0.016 c 0.41,-0.666 0.965,-0.77 1.48,-0.803 l -0.119,0.639 c -0.43,0.033 -0.82,0.189 -1.105,0.467 -0.256,0.258 -0.439,0.596 -0.51,0.975 l -0.512,2.764 h -0.605 l 0.876,-4.726 z" style="fill:#7c8081"/><path id="path122384" d="m 488.246,223.42 h 0.605 l -0.877,4.725 h -0.604 l 0.876,-4.725 z m 0.311,-1.666 h 0.604 l -0.201,1.088 h -0.605 l 0.202,-1.088 z" style="fill:#7c8081"/><path id="path122386" d="m 489.975,223.42 h 0.604 l -0.111,0.605 h 0.018 c 0.234,-0.285 0.781,-0.725 1.586,-0.725 0.578,0 1.035,0.146 1.387,0.578 0.289,0.346 0.422,0.889 0.277,1.666 l -0.482,2.6 h -0.604 l 0.48,-2.6 c 0.115,-0.613 0.004,-1.045 -0.207,-1.295 -0.27,-0.32 -0.686,-0.406 -0.953,-0.406 -0.267,0 -0.715,0.086 -1.104,0.406 -0.305,0.25 -0.576,0.682 -0.68,1.295 l -0.482,2.6 h -0.605 l 0.876,-4.724 z" style="fill:#7c8081"/><path id="path122388" d="m 497.188,223.42 h 0.631 l 0.752,3.957 h 0.016 l 1.709,-3.387 h 0.525 l 0.461,3.387 h 0.018 l 2.236,-3.957 h 0.621 l -2.68,4.725 h -0.684 l -0.418,-3.143 h -0.018 l -1.568,3.143 h -0.682 l -0.919,-4.725 z" style="fill:#7c8081"/><path id="path122390" d="m 504.555,226.004 c -0.129,0.924 0.59,1.709 1.514,1.709 0.867,-0.018 1.574,-0.527 1.9,-1.113 h 0.639 c -0.504,0.941 -1.543,1.658 -2.631,1.658 -1.322,0 -2.264,-1.072 -2.004,-2.471 0.248,-1.338 1.537,-2.461 2.914,-2.486 1.035,0.008 1.656,0.621 1.883,1.209 0.227,0.51 0.197,1.035 0.086,1.494 h -4.301 z m 3.789,-0.545 c 0.016,-1.113 -0.797,-1.615 -1.549,-1.615 -0.742,0 -1.76,0.502 -2.139,1.615 h 3.688 z" style="fill:#7c8081"/><path id="path122392" d="m 510.596,221.754 h 0.605 l -0.465,2.496 h 0.018 c 0.678,-0.77 1.506,-0.949 2.016,-0.949 1.547,0 2.316,1.209 2.082,2.469 -0.252,1.355 -1.516,2.488 -3,2.488 -0.494,0 -1.281,-0.174 -1.666,-0.941 h -0.018 l -0.154,0.828 h -0.604 l 1.186,-6.391 z m 2.074,2.09 c -1.088,0 -2.061,0.906 -2.252,1.943 -0.205,1.105 0.514,1.926 1.533,1.926 1.158,0 2.096,-0.863 2.291,-1.918 0.223,-1.199 -0.537,-1.951 -1.572,-1.951 z" style="fill:#7c8081"/><path id="path122394" d="m 542.465,223.42 h 0.604 l -0.152,0.83 h 0.018 c 0.688,-0.777 1.506,-0.949 2.016,-0.949 1.545,0 2.314,1.209 2.08,2.469 -0.252,1.355 -1.516,2.488 -3,2.488 -0.492,0 -1.281,-0.174 -1.666,-0.941 h -0.016 l -0.463,2.486 h -0.604 l 1.183,-6.383 z m 2.383,0.424 c -1.088,0 -2.061,0.906 -2.252,1.943 -0.205,1.105 0.516,1.926 1.535,1.926 1.156,0 2.094,-0.863 2.289,-1.918 0.223,-1.199 -0.535,-1.951 -1.572,-1.951 z" style="fill:#7c8081"/><path id="path122396" d="m 548.365,223.42 h 0.605 l -0.127,0.684 h 0.018 c 0.408,-0.666 0.963,-0.77 1.479,-0.803 l -0.117,0.639 c -0.43,0.033 -0.822,0.189 -1.107,0.467 -0.254,0.258 -0.438,0.596 -0.508,0.975 l -0.514,2.764 h -0.604 l 0.875,-4.726 z" style="fill:#7c8081"/><path id="path122398" d="m 553.08,223.301 c 1.398,0 2.26,1.182 2.02,2.479 -0.24,1.287 -1.523,2.479 -2.939,2.479 -1.381,0 -2.244,-1.166 -2.008,-2.445 0.277,-1.496 1.683,-2.513 2.927,-2.513 z m -0.81,4.412 c 0.916,0 2,-0.725 2.229,-1.961 0.232,-1.242 -0.699,-1.908 -1.51,-1.908 -0.865,0 -1.998,0.709 -2.23,1.961 -0.204,1.095 0.534,1.908 1.511,1.908 z" style="fill:#7c8081"/><path id="path122400" d="m 560.387,227.402 c -0.094,0.51 -0.213,1.148 -0.752,1.727 -0.75,0.83 -1.846,0.873 -2.035,0.873 -0.674,0 -1.939,-0.26 -2.096,-1.736 h 0.639 c 0.084,0.389 0.4,1.191 1.549,1.191 0.795,0 1.795,-0.457 2.037,-1.762 l 0.076,-0.414 h -0.016 c -0.48,0.674 -1.313,0.977 -2.004,0.977 -1.244,0 -2.291,-0.969 -2.016,-2.453 0.279,-1.502 1.691,-2.504 2.936,-2.504 0.432,0 1.254,0.129 1.643,0.967 h 0.018 l 0.156,-0.848 h 0.605 l -0.74,3.982 z m -2.5,0.311 c 1.252,0 2.082,-1.123 2.23,-1.926 0.191,-1.037 -0.451,-1.943 -1.514,-1.943 -1.07,0 -2.033,0.906 -2.227,1.943 -0.188,1.027 0.438,1.926 1.511,1.926 z" style="fill:#7c8081"/><path id="path122402" d="m 562.268,223.42 h 0.604 l -0.125,0.684 h 0.016 c 0.41,-0.666 0.965,-0.77 1.48,-0.803 l -0.119,0.639 c -0.43,0.033 -0.82,0.189 -1.105,0.467 -0.256,0.258 -0.439,0.596 -0.51,0.975 l -0.512,2.764 h -0.605 l 0.876,-4.726 z" style="fill:#7c8081"/><path id="path122404" d="m 568.623,228.145 h -0.605 l 0.154,-0.828 h -0.018 c -0.662,0.777 -1.521,0.941 -2.014,0.941 -1.486,0 -2.33,-1.133 -2.078,-2.488 0.234,-1.26 1.451,-2.469 2.998,-2.469 0.51,0 1.309,0.164 1.662,0.949 h 0.018 l 0.154,-0.83 h 0.604 l -0.875,4.725 z m -2.381,-0.432 c 1.018,0 2.043,-0.82 2.248,-1.926 0.191,-1.037 -0.443,-1.943 -1.531,-1.943 -1.037,0 -2.074,0.752 -2.297,1.951 -0.195,1.055 0.422,1.918 1.58,1.918 z" style="fill:#7c8081"/><path id="path122406" d="m 570.605,223.42 h 0.605 l -0.102,0.545 -0.014,-0.018 -0.004,0.018 h 0.018 c 0.355,-0.467 0.971,-0.664 1.41,-0.664 0.398,0 1.201,0.18 1.422,0.906 0.488,-0.727 1.359,-0.906 1.756,-0.906 0.727,0 1.813,0.432 1.514,2.037 l -0.52,2.807 h -0.605 l 0.508,-2.736 c 0.096,-0.52 0.049,-0.77 -0.033,-0.986 -0.137,-0.336 -0.453,-0.578 -0.963,-0.578 -0.51,0 -0.918,0.242 -1.18,0.578 -0.16,0.217 -0.301,0.467 -0.398,0.986 l -0.508,2.736 h -0.604 l 0.508,-2.736 c 0.096,-0.52 0.047,-0.77 -0.033,-0.986 -0.137,-0.336 -0.455,-0.578 -0.963,-0.578 -0.51,0 -0.918,0.242 -1.18,0.578 -0.16,0.217 -0.303,0.467 -0.398,0.986 l -0.508,2.736 h -0.604 l 0.876,-4.725 z" style="fill:#7c8081"/><path id="path122408" d="m 578.709,223.42 h 0.604 l -0.1,0.545 -0.016,-0.018 -0.002,0.018 h 0.018 c 0.354,-0.467 0.969,-0.664 1.41,-0.664 0.396,0 1.201,0.18 1.42,0.906 0.488,-0.727 1.361,-0.906 1.758,-0.906 0.725,0 1.811,0.432 1.514,2.037 l -0.521,2.807 h -0.604 l 0.508,-2.736 c 0.096,-0.52 0.047,-0.77 -0.033,-0.986 -0.137,-0.336 -0.455,-0.578 -0.965,-0.578 -0.51,0 -0.916,0.242 -1.178,0.578 -0.16,0.217 -0.303,0.467 -0.398,0.986 l -0.508,2.736 h -0.605 l 0.508,-2.736 c 0.098,-0.52 0.049,-0.77 -0.033,-0.986 -0.135,-0.336 -0.453,-0.578 -0.963,-0.578 -0.51,0 -0.918,0.242 -1.178,0.578 -0.162,0.217 -0.303,0.467 -0.398,0.986 l -0.508,2.736 h -0.605 l 0.875,-4.725 z" style="fill:#7c8081"/><path id="path122410" d="m 586.803,223.42 h 0.605 l -0.877,4.725 h -0.604 l 0.876,-4.725 z m 0.31,-1.666 h 0.604 l -0.201,1.088 h -0.605 l 0.202,-1.088 z" style="fill:#7c8081"/><path id="path122412" d="m 588.531,223.42 h 0.604 l -0.111,0.605 h 0.018 c 0.234,-0.285 0.781,-0.725 1.586,-0.725 0.578,0 1.035,0.146 1.387,0.578 0.289,0.346 0.422,0.889 0.277,1.666 l -0.482,2.6 h -0.604 l 0.48,-2.6 c 0.115,-0.613 0.004,-1.045 -0.207,-1.295 -0.27,-0.32 -0.686,-0.406 -0.953,-0.406 -0.267,0 -0.715,0.086 -1.104,0.406 -0.305,0.25 -0.576,0.682 -0.68,1.295 l -0.482,2.6 h -0.605 l 0.876,-4.724 z" style="fill:#7c8081"/><path id="path122414" d="m 597.734,227.402 c -0.094,0.51 -0.213,1.148 -0.752,1.727 -0.75,0.83 -1.846,0.873 -2.037,0.873 -0.674,0 -1.938,-0.26 -2.096,-1.736 h 0.639 c 0.084,0.389 0.402,1.191 1.551,1.191 0.793,0 1.795,-0.457 2.037,-1.762 l 0.076,-0.414 h -0.018 c -0.479,0.674 -1.313,0.977 -2.004,0.977 -1.242,0 -2.289,-0.969 -2.014,-2.453 0.277,-1.502 1.689,-2.504 2.934,-2.504 0.432,0 1.254,0.129 1.643,0.967 h 0.018 l 0.158,-0.848 h 0.604 l -0.739,3.982 z m -2.502,0.311 c 1.252,0 2.082,-1.123 2.232,-1.926 0.191,-1.037 -0.453,-1.943 -1.514,-1.943 -1.072,0 -2.035,0.906 -2.227,1.943 -0.19,1.027 0.439,1.926 1.509,1.926 z" style="fill:#7c8081"/></g><g id="Ocsigen__x28_bleu_x29_"><linearGradient id="SVGID_2265_" x1="668.959" x2="420.857" y1="182.46" y2="231.799" gradientUnits="userSpaceOnUse"><stop style="stop-color:#00c1f3" id="stop122418" offset="0"/><stop style="stop-color:#00bbef" id="stop122420" offset=".127"/><stop style="stop-color:#00afe7" id="stop122422" offset=".302"/><stop style="stop-color:#009dda" id="stop122424" offset=".505"/><stop style="stop-color:#0085c9" id="stop122426" offset=".73"/><stop style="stop-color:#006ab5" id="stop122428" offset=".969"/><stop style="stop-color:#0066b3" id="stop122430" offset="1"/></linearGradient><path id="path122432" d="m 613.494,172.684 c -6.035,0 -11.252,2.446 -14.922,6.359 v -5.789 h -5.463 v 40.439 h 5.463 v -21.035 c 0.326,-8.072 6.85,-14.513 15.002,-14.513 8.234,0 15.002,6.767 15.002,15.083 v 20.464 h 5.463 v -20.464 c 0,-11.576 -9.541,-20.544 -20.545,-20.544 z" style="fill:url(#linearGradient139457)"/><linearGradient id="SVGID_2266_" x1="667.177" x2="419.084" y1="173.509" y2="222.846" gradientUnits="userSpaceOnUse"><stop style="stop-color:#00c1f3" id="stop122435" offset="0"/><stop style="stop-color:#00bbef" id="stop122437" offset=".127"/><stop style="stop-color:#00afe7" id="stop122439" offset=".302"/><stop style="stop-color:#009dda" id="stop122441" offset=".505"/><stop style="stop-color:#0085c9" id="stop122443" offset=".73"/><stop style="stop-color:#006ab5" id="stop122445" offset=".969"/><stop style="stop-color:#0066b3" id="stop122447" offset="1"/></linearGradient><path id="path122449" d="m 553.297,178.944 c -7.99,8.038 -8.008,20.778 0.088,28.826 4.758,4.726 11.094,6.662 17.137,5.875 v -5.486 c -4.648,0.803 -9.607,-0.609 -13.227,-4.207 -2.256,-2.241 -3.646,-5.004 -4.176,-7.827 l 34.992,-0.167 c 0.732,-6.169 -1.248,-12.622 -5.877,-17.219 -8.209,-8.16 -20.834,-7.949 -28.937,0.205 z m -0.195,11.645 c 0.512,-2.827 1.885,-5.598 4.127,-7.853 5.861,-5.899 15.316,-5.928 21.213,-0.066 2.256,2.241 3.65,5.004 4.178,7.828 l -29.518,0.091 z" style="fill:url(#linearGradient139459)"/><linearGradient id="SVGID_2267_" x1="666.801" x2="418.707" y1="171.615" y2="220.952" gradientUnits="userSpaceOnUse"><stop style="stop-color:#00c1f3" id="stop122452" offset="0"/><stop style="stop-color:#00bbef" id="stop122454" offset=".127"/><stop style="stop-color:#00afe7" id="stop122456" offset=".302"/><stop style="stop-color:#009dda" id="stop122458" offset=".505"/><stop style="stop-color:#0085c9" id="stop122460" offset=".73"/><stop style="stop-color:#006ab5" id="stop122462" offset=".969"/><stop style="stop-color:#0066b3" id="stop122464" offset="1"/></linearGradient><path id="path122466" d="m 521.787,172.928 c -11.578,0 -20.383,9.05 -20.383,20.546 0,11.332 8.969,20.383 20.383,20.383 6.033,0 11.332,-2.447 15.084,-6.443 v 0.158 c 0,8.316 -6.605,14.921 -14.922,14.921 v 5.461 c 11.414,0 20.383,-9.049 20.383,-20.382 v -14.18 c -0.08,-11.495 -9.621,-20.464 -20.545,-20.464 z m 15.084,21.117 c -0.326,7.989 -7.014,14.35 -15.004,14.35 -8.314,0 -15,-6.686 -15,-15.002 0,-8.235 6.686,-15.002 15,-15.002 8.236,0 15.004,6.767 15.004,15.002 v 0.652 z" style="fill:url(#linearGradient139461)"/><g id="g122468"><linearGradient id="SVGID_2268_" x1="665.471" x2="417.409" y1="165.037" y2="214.367" gradientUnits="userSpaceOnUse"><stop style="stop-color:#00c1f3" id="stop122471" offset="0"/><stop style="stop-color:#00bbef" id="stop122473" offset=".127"/><stop style="stop-color:#00afe7" id="stop122475" offset=".302"/><stop style="stop-color:#009dda" id="stop122477" offset=".505"/><stop style="stop-color:#0085c9" id="stop122479" offset=".73"/><stop style="stop-color:#006ab5" id="stop122481" offset=".969"/><stop style="stop-color:#0066b3" id="stop122483" offset="1"/></linearGradient><rect id="rect122485" width="5.461" height="28.961" x="490.879" y="184.732" style="fill:url(#linearGradient139463)"/><linearGradient id="SVGID_2269_" x1="660.959" x2="412.907" y1="142.386" y2="191.714" gradientUnits="userSpaceOnUse"><stop style="stop-color:#00c1f3" id="stop122488" offset="0"/><stop style="stop-color:#00bbef" id="stop122490" offset=".127"/><stop style="stop-color:#00afe7" id="stop122492" offset=".302"/><stop style="stop-color:#009dda" id="stop122494" offset=".505"/><stop style="stop-color:#0085c9" id="stop122496" offset=".73"/><stop style="stop-color:#006ab5" id="stop122498" offset=".969"/><stop style="stop-color:#0066b3" id="stop122500" offset="1"/></linearGradient><path id="path122502" d="m 493.568,170.979 c -2.445,0 -4.646,2.119 -4.646,4.729 0,2.609 2.201,4.647 4.646,4.647 2.609,0 4.729,-2.039 4.729,-4.647 0,-2.61 -2.119,-4.729 -4.729,-4.729 z" style="fill:url(#linearGradient139465)"/></g><linearGradient id="SVGID_2270_" x1="663.372" x2="415.282" y1="154.389" y2="203.725" gradientUnits="userSpaceOnUse"><stop style="stop-color:#00c1f3" id="stop122505" offset="0"/><stop style="stop-color:#00bbef" id="stop122507" offset=".127"/><stop style="stop-color:#00afe7" id="stop122509" offset=".302"/><stop style="stop-color:#009dda" id="stop122511" offset=".505"/><stop style="stop-color:#0085c9" id="stop122513" offset=".73"/><stop style="stop-color:#006ab5" id="stop122515" offset=".969"/><stop style="stop-color:#0066b3" id="stop122517" offset="1"/></linearGradient><path id="path122519" d="m 465.359,193.229 c 0,6.565 -4.203,12.132 -10.119,14.126 l -0.205,0.074 c -1.445,0.463 -2.986,0.718 -4.596,0.718 v 5.463 c 1.588,0 3.121,-0.191 4.596,-0.523 9.133,-2.055 15.787,-10.102 15.787,-19.858 0,-7.479 5.453,-13.661 12.682,-14.737 v -5.522 c -10.326,1.095 -18.145,9.679 -18.145,20.259 z" style="fill:url(#linearGradient139467)"/><linearGradient id="SVGID_2271_" x1="662.341" x2="414.244" y1="149.169" y2="198.507" gradientUnits="userSpaceOnUse"><stop style="stop-color:#00c1f3" id="stop122522" offset="0"/><stop style="stop-color:#00bbef" id="stop122524" offset=".127"/><stop style="stop-color:#00afe7" id="stop122526" offset=".302"/><stop style="stop-color:#009dda" id="stop122528" offset=".505"/><stop style="stop-color:#0085c9" id="stop122530" offset=".73"/><stop style="stop-color:#006ab5" id="stop122532" offset=".969"/><stop style="stop-color:#0066b3" id="stop122534" offset="1"/></linearGradient><path id="path122536" d="m 430.434,203.747 c -5.87,-5.871 -5.87,-15.409 0,-21.198 5.87,-5.87 15.328,-5.87 21.199,0 l 0.08,0.082 3.832,-3.914 c -7.746,-7.745 -20.871,-8.152 -29.024,0 -7.989,8.072 -7.989,20.79 0.081,28.943 4.801,4.801 11.243,6.694 17.377,5.778 v -5.581 c -4.761,0.946 -9.909,-0.423 -13.545,-4.11 z" style="fill:url(#linearGradient139469)"/><linearGradient id="SVGID_2272_" x1="660.665" x2="412.576" y1="140.781" y2="190.117" gradientUnits="userSpaceOnUse"><stop style="stop-color:#00c1f3" id="stop122539" offset="0"/><stop style="stop-color:#00bbef" id="stop122541" offset=".127"/><stop style="stop-color:#00afe7" id="stop122543" offset=".302"/><stop style="stop-color:#009dda" id="stop122545" offset=".505"/><stop style="stop-color:#0085c9" id="stop122547" offset=".73"/><stop style="stop-color:#006ab5" id="stop122549" offset=".969"/><stop style="stop-color:#0066b3" id="stop122551" offset="1"/></linearGradient><path id="path122553" d="m 395.703,173.01 c -11.577,0 -20.383,9.05 -20.383,20.546 0,11.331 8.968,20.381 20.383,20.381 11.496,0 20.545,-9.05 20.545,-20.381 0,-11.578 -9.539,-20.546 -20.545,-20.546 z m 0.082,35.465 c -8.235,0 -15.002,-6.766 -15.002,-15 0,-8.316 6.767,-15.002 15.002,-15.002 8.315,0 15,6.686 15,15.002 0,8.234 -6.684,15 -15,15 z" style="fill:url(#linearGradient139471)"/><g id="Ocsigen__x28_Ombres_haut_droite_x29_" display="none" style="display:none"><linearGradient id="SVGID_2273_" x1="597.342" x2="625.429" y1="216.656" y2="176.543" gradientUnits="userSpaceOnUse"><stop style="stop-color:#fff" id="stop122557" offset=".626"/><stop style="stop-color:#fbfbfb" id="stop122559" offset=".8"/><stop style="stop-color:#f1f1f0" id="stop122561" offset=".863"/><stop style="stop-color:#e3e3e3" id="stop122563" offset=".908"/><stop style="stop-color:#d1d2d2" id="stop122565" offset=".944"/><stop style="stop-color:#bdbebe" id="stop122567" offset=".975"/><stop style="stop-color:#a6a9aa" id="stop122569" offset="1"/></linearGradient><path id="path122571" d="m 613.494,172.684 c -6.035,0 -11.252,2.446 -14.922,6.359 v -5.789 h -5.463 v 40.439 h 5.463 v -21.035 c 0.326,-8.072 6.85,-14.513 15.002,-14.513 8.234,0 15.002,6.767 15.002,15.083 v 20.464 h 5.463 v -20.464 c 0,-11.576 -9.541,-20.544 -20.545,-20.544 z" display="inline" style="fill:url(#linearGradient139473);display:inline"/><linearGradient id="SVGID_2274_" x1="555.153" x2="578.647" y1="209.391" y2="175.838" gradientUnits="userSpaceOnUse"><stop style="stop-color:#fff" id="stop122574" offset=".626"/><stop style="stop-color:#fbfbfb" id="stop122576" offset=".8"/><stop style="stop-color:#f1f1f0" id="stop122578" offset=".863"/><stop style="stop-color:#e3e3e3" id="stop122580" offset=".908"/><stop style="stop-color:#d1d2d2" id="stop122582" offset=".944"/><stop style="stop-color:#bdbebe" id="stop122584" offset=".975"/><stop style="stop-color:#a6a9aa" id="stop122586" offset="1"/></linearGradient><path id="path122588" d="m 553.297,178.944 c -7.99,8.038 -8.008,20.778 0.088,28.826 4.758,4.726 11.094,6.662 17.137,5.875 v -5.486 c -4.648,0.803 -9.607,-0.609 -13.227,-4.207 -2.256,-2.241 -3.646,-5.004 -4.176,-7.827 l 34.992,-0.167 c 0.732,-6.169 -1.248,-12.622 -5.877,-17.219 -8.209,-8.16 -20.834,-7.949 -28.937,0.205 z m -0.195,11.645 c 0.512,-2.827 1.885,-5.598 4.127,-7.853 5.861,-5.899 15.316,-5.928 21.213,-0.066 2.256,2.241 3.65,5.004 4.178,7.828 l -29.518,0.091 z" display="inline" style="fill:url(#linearGradient139475);display:inline"/><linearGradient id="SVGID_2275_" x1="508.962" x2="536.859" y1="218.861" y2="179.02" gradientUnits="userSpaceOnUse"><stop style="stop-color:#fff" id="stop122591" offset=".626"/><stop style="stop-color:#fbfbfb" id="stop122593" offset=".8"/><stop style="stop-color:#f1f1f0" id="stop122595" offset=".863"/><stop style="stop-color:#e3e3e3" id="stop122597" offset=".908"/><stop style="stop-color:#d1d2d2" id="stop122599" offset=".944"/><stop style="stop-color:#bdbebe" id="stop122601" offset=".975"/><stop style="stop-color:#a6a9aa" id="stop122603" offset="1"/></linearGradient><path id="path122605" d="m 521.787,172.928 c -11.578,0 -20.383,9.05 -20.383,20.546 0,11.332 8.969,20.383 20.383,20.383 6.033,0 11.332,-2.447 15.084,-6.443 v 0.158 c 0,8.316 -6.605,14.921 -14.922,14.921 v 5.461 c 11.414,0 20.383,-9.049 20.383,-20.382 v -14.18 c -0.08,-11.495 -9.621,-20.464 -20.545,-20.464 z m 15.084,21.117 c -0.326,7.989 -7.014,14.35 -15.004,14.35 -8.314,0 -15,-6.686 -15,-15.002 0,-8.235 6.686,-15.002 15,-15.002 8.236,0 15.004,6.767 15.004,15.002 v 0.652 z" display="inline" style="fill:url(#linearGradient139477);display:inline"/><g id="g122607" display="inline" style="display:inline"><linearGradient id="SVGID_2276_" x1="485.908" x2="501.312" y1="210.213" y2="188.214" gradientUnits="userSpaceOnUse"><stop style="stop-color:#fff" id="stop122610" offset=".141"/><stop style="stop-color:#fbfbfb" id="stop122612" offset=".541"/><stop style="stop-color:#f1f1f0" id="stop122614" offset=".685"/><stop style="stop-color:#e3e3e3" id="stop122616" offset=".788"/><stop style="stop-color:#d1d2d2" id="stop122618" offset=".871"/><stop style="stop-color:#bdbebe" id="stop122620" offset=".942"/><stop style="stop-color:#a6a9aa" id="stop122622" offset="1"/></linearGradient><rect id="rect122624" width="5.461" height="28.961" x="490.879" y="184.732" style="fill:url(#linearGradient139479)"/><linearGradient id="SVGID_2277_" x1="490.313" x2="496.927" y1="178.995" y2="172.38" gradientUnits="userSpaceOnUse"><stop style="stop-color:#fff" id="stop122627" offset=".215"/><stop style="stop-color:#fbfbfb" id="stop122629" offset=".581"/><stop style="stop-color:#f1f1f0" id="stop122631" offset=".712"/><stop style="stop-color:#e3e3e3" id="stop122633" offset=".806"/><stop style="stop-color:#d1d2d2" id="stop122635" offset=".882"/><stop style="stop-color:#bdbebe" id="stop122637" offset=".947"/><stop style="stop-color:#a6a9aa" id="stop122639" offset="1"/></linearGradient><path id="path122641" d="m 493.568,170.979 c -2.445,0 -4.646,2.119 -4.646,4.729 0,2.609 2.201,4.647 4.646,4.647 2.609,0 4.729,-2.039 4.729,-4.647 0,-2.61 -2.119,-4.729 -4.729,-4.729 z" style="fill:url(#linearGradient139481)"/></g><linearGradient id="SVGID_2278_" x1="452.706" x2="482.679" y1="215.198" y2="172.392" gradientUnits="userSpaceOnUse"><stop style="stop-color:#fff" id="stop122644" offset=".258"/><stop style="stop-color:#fbfbfb" id="stop122646" offset=".604"/><stop style="stop-color:#f1f1f0" id="stop122648" offset=".728"/><stop style="stop-color:#e3e3e3" id="stop122650" offset=".817"/><stop style="stop-color:#d1d2d2" id="stop122652" offset=".889"/><stop style="stop-color:#bdbebe" id="stop122654" offset=".95"/><stop style="stop-color:#a6a9aa" id="stop122656" offset="1"/></linearGradient><path id="path122658" d="m 465.359,193.229 c 0,6.565 -4.203,12.132 -10.119,14.126 l -0.205,0.074 c -1.445,0.463 -2.986,0.718 -4.596,0.718 v 5.463 c 1.588,0 3.121,-0.191 4.596,-0.523 9.133,-2.055 15.787,-10.102 15.787,-19.858 0,-7.479 5.453,-13.661 12.682,-14.737 v -5.522 c -10.326,1.095 -18.145,9.679 -18.145,20.259 z" display="inline" style="fill:url(#linearGradient139483);display:inline"/><linearGradient id="SVGID_2279_" x1="426.655" x2="450.134" y1="208.088" y2="174.556" gradientUnits="userSpaceOnUse"><stop style="stop-color:#fff" id="stop122661" offset=".626"/><stop style="stop-color:#fbfbfb" id="stop122663" offset=".8"/><stop style="stop-color:#f1f1f0" id="stop122665" offset=".863"/><stop style="stop-color:#e3e3e3" id="stop122667" offset=".908"/><stop style="stop-color:#d1d2d2" id="stop122669" offset=".944"/><stop style="stop-color:#bdbebe" id="stop122671" offset=".975"/><stop style="stop-color:#a6a9aa" id="stop122673" offset="1"/></linearGradient><path id="path122675" d="m 430.434,203.747 c -5.87,-5.871 -5.87,-15.409 0,-21.198 5.87,-5.87 15.328,-5.87 21.199,0 l 0.08,0.082 3.832,-3.914 c -7.746,-7.745 -20.871,-8.152 -29.024,0 -7.989,8.072 -7.989,20.79 0.081,28.943 4.801,4.801 11.243,6.694 17.377,5.778 v -5.581 c -4.761,0.946 -9.909,-0.423 -13.545,-4.11 z" display="inline" style="fill:url(#linearGradient139485);display:inline"/><linearGradient id="SVGID_2280_" x1="383.978" x2="407.469" y1="210.299" y2="176.751" gradientUnits="userSpaceOnUse"><stop style="stop-color:#fff" id="stop122678" offset=".626"/><stop style="stop-color:#fbfbfb" id="stop122680" offset=".8"/><stop style="stop-color:#f1f1f0" id="stop122682" offset=".863"/><stop style="stop-color:#e3e3e3" id="stop122684" offset=".908"/><stop style="stop-color:#d1d2d2" id="stop122686" offset=".944"/><stop style="stop-color:#bdbebe" id="stop122688" offset=".975"/><stop style="stop-color:#a6a9aa" id="stop122690" offset="1"/></linearGradient><path id="path122692" d="m 395.703,173.01 c -11.577,0 -20.383,9.05 -20.383,20.546 0,11.331 8.968,20.381 20.383,20.381 11.496,0 20.545,-9.05 20.545,-20.381 0,-11.578 -9.539,-20.546 -20.545,-20.546 z m 0.082,35.465 c -8.235,0 -15.002,-6.766 -15.002,-15 0,-8.316 6.767,-15.002 15.002,-15.002 8.315,0 15,6.686 15,15.002 0,8.234 -6.684,15 -15,15 z" display="inline" style="fill:url(#linearGradient139487);display:inline"/></g></g></g></svg>